<?xml version="1.0"?>
<svg width="1000" height="1000" xmlns="http://www.w3.org/2000/svg" xmlns:svg="http://www.w3.org/2000/svg" data-name="Capa 2">
 <defs>
  <style>.cls-1 {
        fill: #d03779;
      }

      .cls-2 {
        fill: #5c1c42;
      }</style>
 </defs>
 <g class="layer">
  <title>Layer 1</title>
  <ellipse cx="500.74" cy="505.01" fill="#ffffff" id="svg_84" rx="485" ry="485" stroke="#000000" stroke-width="2" transform="matrix(1 0 0 1 0 0)"/>
  <path class="cls-1" d="m416.72,629.2c2.14,10.73 -21.3,13.5 -29.6,14.35c-8.3,1.22 -17.29,-5.15 -18.88,-11.11c-54.77,-150.39 -16.94,-322.72 100.9,-452.06c16.74,-18.71 35.2,-36.56 54.57,-53.94c11.34,-10.2 32.02,-11.74 46.2,-3.45c3.25,1.86 5.74,4.09 7.81,6.54c28.56,31.72 54.36,64.78 77.18,98.89c94.26,136.36 134.72,292.69 102.56,443.56c-22.34,111.38 -79.19,220.11 -171.37,310.76c-1.45,1.43 -4.22,1.7 -6.22,0.64c-1.66,-0.9 -2.21,-2.44 -1.52,-3.72c36.79,-68.55 65.56,-137.74 82.3,-208.1c44.95,-197.31 14.73,-408.65 -116.74,-586.66c-7.61,6.96 -15.28,13.98 -22.2,21.36c-162.87,172.44 -106.99,413 -105.05,422.94l0.07,0z" id="svg_83" transform="matrix(1 0 0 1 0 0)"/>
  <path class="cls-2" d="m361.13,782.9c-189.7,-251.8 -105.42,-547.08 190.45,-738.57c-417.23,146.84 -500.61,571.35 -165.66,800.01c20.26,14.17 43.82,27.3 66.83,39.16c-8.31,-8.31 -17.24,-16.22 -25.21,-24.64c-25.14,-23.76 -46.5,-50.04 -66.35,-75.96l-0.07,0z" id="svg_82"/>
 </g>
</svg>