<?xml version="1.0"?>
<svg width="250" height="250" xmlns="http://www.w3.org/2000/svg" xmlns:svg="http://www.w3.org/2000/svg" data-name="Capa 2">
 <defs>
  <style>.cls-1 {
        fill: #d03779;
      }

      .cls-2 {
        fill: #5c1c42;
      }</style>
 </defs>
 <g class="layer">
  <title>Layer 1</title>
  <ellipse cx="125.07" cy="129.01" fill="#ffffff" id="svg_84" rx="111.5" ry="116" stroke="#000000" stroke-width="2"/>
  <path class="cls-1" d="m114.18,150.59c0.31,2.02 -3.08,2.54 -4.28,2.7c-1.2,0.23 -2.5,-0.97 -2.73,-2.09c-7.92,-28.3 -2.45,-60.73 14.59,-85.07c2.42,-3.52 5.09,-6.88 7.89,-10.15c1.64,-1.92 4.63,-2.21 6.68,-0.65c0.47,0.35 0.83,0.77 1.13,1.23c4.13,5.97 7.86,12.19 11.16,18.61c13.63,25.66 19.48,55.08 14.83,83.47c-3.23,20.96 -11.45,41.42 -24.78,58.48c-0.21,0.27 -0.61,0.32 -0.9,0.12c-0.24,-0.17 -0.32,-0.46 -0.22,-0.7c5.32,-12.9 9.48,-25.92 11.9,-39.16c6.5,-37.13 2.13,-76.9 -16.88,-110.4c-1.1,1.31 -2.21,2.63 -3.21,4.02c-23.55,32.45 -15.47,77.72 -15.19,79.59l0.01,0z" id="svg_83"/>
  <path class="cls-2" d="m103.52,179.9c-27.62,-49.06 -15.35,-106.59 27.73,-143.9c-60.75,28.61 -72.89,111.32 -24.12,155.87c2.95,2.76 6.38,5.32 9.73,7.63c-1.21,-1.62 -2.51,-3.16 -3.67,-4.8c-3.66,-4.63 -6.77,-9.75 -9.66,-14.8l-0.01,0z" id="svg_82"/>
 </g>
</svg>