<?xml version="1.0" encoding="UTF-8"?>
<svg id="Capa_2" data-name="Capa 2" xmlns="http://www.w3.org/2000/svg" viewBox="0 0 753.18 181.36">
  <defs>
    <style>
      .cls-1 {
        fill: #d03779;
      }

      .cls-2 {
        fill: #5c1c42;
      }
    </style>
  </defs>
  <g>
    <g>
      <g>
        <path class="cls-2" d="M124.44,44.49c.51.02.99.04,1.43.07.38.02.77.04,1.17.05.4.01.72.02.97.02.42,0,1.13-.02,2.11-.07.99-.04,2.11-.09,3.38-.13s2.58-.09,3.94-.13c1.37-.04,2.65-.07,3.85-.07,3.22,0,6.28.4,9.19,1.2,2.91.8,5.46,2.11,7.66,3.93,2.2,1.82,3.94,4.21,5.23,7.16,1.29,2.95,1.93,6.58,1.93,10.89,0,3.08-.34,5.86-1.02,8.32-.68,2.46-1.63,4.64-2.85,6.52-1.22,1.89-2.68,3.5-4.38,4.84-1.7,1.34-3.57,2.45-5.63,3.31-2.05.87-4.24,1.5-6.57,1.9-2.33.4-4.74.6-7.22.6-.89,0-1.96-.03-3.21-.08-1.25-.06-2.51-.12-3.78-.18-1.27-.07-2.46-.13-3.58-.18-1.12-.06-1.99-.08-2.61-.08v-.13c.13-.47.26-1.04.38-1.73.12-.69.23-1.54.32-2.56.09-1.02.15-2.24.2-3.65.04-1.41.07-3.06.07-4.94v-21.67c0-1.89-.02-3.55-.07-4.98-.04-1.43-.11-2.66-.2-3.7-.09-1.03-.19-1.9-.32-2.61-.12-.71-.25-1.3-.38-1.76v-.13ZM131.73,47.48c-.04,2.49-.09,4.89-.13,7.22-.02,1-.04,2.02-.05,3.06-.01,1.04-.02,2.07-.03,3.08-.01,1.01-.02,1.97-.03,2.9-.01.92-.02,1.74-.02,2.45,0,1.49.01,3.28.03,5.39.02,2.11.05,4.27.08,6.49.03,2.22.08,4.35.15,6.39.07,2.04.14,3.74.23,5.09.31.04.73.09,1.25.15.52.06,1.07.1,1.65.13.58.03,1.14.06,1.7.08.55.02,1.02.03,1.4.03,1.55,0,3.15-.1,4.78-.32,1.63-.21,3.21-.6,4.73-1.18,1.52-.58,2.95-1.37,4.29-2.38,1.34-1.01,2.52-2.31,3.53-3.91,1.01-1.6,1.8-3.52,2.38-5.78.58-2.25.87-4.91.87-7.97,0-3.4-.41-6.42-1.23-9.07-.82-2.65-2.03-4.89-3.61-6.71-1.59-1.82-3.55-3.2-5.89-4.14s-5.03-1.41-8.07-1.41c-.6,0-1.28.02-2.03.05-.75.03-1.5.07-2.25.1-.74.03-1.44.08-2.1.13-.66.06-1.19.09-1.61.12Z"/>
        <path class="cls-2" d="M137.62,93.29c-.89,0-1.98-.03-3.23-.08-1.25-.06-2.51-.12-3.78-.18-1.26-.07-2.46-.13-3.58-.18-1.11-.06-1.98-.08-2.59-.08h-.4l.02-.65c.13-.45.25-1.02.37-1.69.12-.67.22-1.52.31-2.53.09-1,.15-2.22.2-3.62.04-1.42.07-3.07.07-4.93v-21.67c0-1.86-.02-3.53-.07-4.96-.04-1.42-.11-2.66-.2-3.67-.09-1.01-.19-1.88-.31-2.58-.12-.69-.24-1.27-.37-1.72l-.02-.24v-.42l1.85.09c.38.02.76.04,1.16.05.39.01.71.02.95.02.42,0,1.12-.02,2.1-.07.99-.04,2.12-.09,3.38-.13l3.95-.13c1.37-.04,2.66-.07,3.86-.07,3.24,0,6.36.41,9.3,1.21,2.95.81,5.58,2.16,7.81,4.01,2.24,1.85,4.03,4.31,5.34,7.31,1.3,2.99,1.96,6.71,1.96,11.05,0,3.11-.35,5.94-1.03,8.43-.69,2.49-1.66,4.73-2.9,6.64-1.24,1.92-2.74,3.58-4.47,4.94-1.72,1.36-3.64,2.49-5.72,3.37-2.07.87-4.31,1.52-6.66,1.92-2.34.4-4.8.6-7.29.6ZM124.93,91.96c.57.01,1.28.04,2.15.08,1.12.05,2.31.12,3.58.18,1.26.07,2.52.13,3.77.18,1.24.05,2.32.08,3.19.08,2.45,0,4.86-.2,7.16-.59,2.29-.39,4.47-1.02,6.49-1.87,2.01-.85,3.87-1.94,5.53-3.26,1.65-1.31,3.1-2.9,4.29-4.75,1.19-1.84,2.13-4,2.8-6.41.66-2.42,1-5.18,1-8.22,0-4.23-.64-7.84-1.9-10.72-1.26-2.88-2.98-5.24-5.11-7.01-2.14-1.77-4.67-3.07-7.51-3.85-2.86-.79-5.91-1.18-9.08-1.18-1.19,0-2.47.02-3.83.07l-3.94.13c-1.26.04-2.39.09-3.37.13-1,.05-1.71.07-2.13.07-.25,0-.57,0-.98-.02-.4-.01-.8-.03-1.18-.05l-.91-.04c.1.4.19.87.29,1.4.12.72.23,1.61.32,2.65.09,1.03.16,2.28.2,3.72.04,1.45.07,3.12.07,4.99v21.67c0,1.87-.02,3.53-.07,4.96-.04,1.42-.11,2.65-.2,3.67-.09,1.03-.2,1.9-.32,2.6-.09.52-.19.99-.29,1.4ZM137.95,90.36c-.38,0-.85-.01-1.41-.03-.56-.02-1.13-.05-1.71-.08-.58-.03-1.14-.08-1.67-.13s-.95-.11-1.26-.15l-.32-.05-.02-.33c-.09-1.34-.17-3.06-.23-5.11-.07-2.04-.12-4.18-.15-6.4-.03-2.22-.06-4.38-.08-6.49-.02-2.11-.03-3.91-.03-5.4,0-.71,0-1.53.02-2.45l.07-5.98c.01-1.04.03-2.07.05-3.07l.14-7.6.38-.02c.42-.02.95-.06,1.6-.12.66-.06,1.36-.1,2.11-.13l2.25-.1c.76-.03,1.44-.05,2.05-.05,3.08,0,5.84.49,8.22,1.44,2.39.96,4.42,2.39,6.05,4.25,1.62,1.86,2.86,4.16,3.69,6.85.83,2.68,1.25,5.77,1.25,9.19,0,3.08-.29,5.8-.88,8.07-.59,2.28-1.4,4.27-2.43,5.89-1.03,1.63-2.25,2.98-3.63,4.02-1.37,1.03-2.84,1.85-4.39,2.44-1.54.59-3.16.99-4.82,1.2-1.64.21-3.26.32-4.83.32ZM132.34,89.2c.25.03.56.07.91.1.52.05,1.06.1,1.63.13.58.03,1.14.06,1.69.08.55.02,1.01.03,1.38.03,1.53,0,3.12-.1,4.73-.31,1.59-.21,3.15-.6,4.64-1.16,1.48-.56,2.89-1.34,4.2-2.33,1.3-.97,2.45-2.25,3.43-3.8.98-1.55,1.77-3.46,2.33-5.66.57-2.21.85-4.86.85-7.87,0-3.34-.41-6.35-1.21-8.95-.8-2.58-1.99-4.79-3.53-6.56-1.54-1.76-3.47-3.12-5.74-4.04-2.28-.92-4.95-1.39-7.92-1.39-.59,0-1.27.02-2.01.05l-2.25.1c-.74.03-1.43.08-2.08.13-.48.04-.9.07-1.25.1l-.13,6.85c-.02,1-.04,2.02-.05,3.06l-.07,5.98c-.01.92-.02,1.73-.02,2.44,0,1.49.01,3.28.03,5.39.02,2.11.05,4.27.08,6.49.03,2.22.08,4.35.15,6.38.06,1.87.13,3.47.21,4.75Z"/>
      </g>
      <g>
        <path class="cls-2" d="M173.47,71.28c0-1.89-.03-3.53-.08-4.94-.06-1.41-.12-2.62-.2-3.65-.08-1.02-.18-1.87-.3-2.56-.12-.69-.25-1.27-.38-1.73v-.13h7.69v.13c-.18.51-.33,1.13-.45,1.86-.12.73-.22,1.68-.28,2.83.82-.69,1.68-1.36,2.56-2.03.89-.67,1.8-1.25,2.73-1.76.93-.51,1.88-.92,2.85-1.23.97-.31,1.94-.47,2.91-.47.6,0,1.12.03,1.56.08s.84.13,1.2.23c.35.1.68.21.97.33.29.12.57.24.83.35l-1.63,6.36-.57-.13c-.27-.98-.77-1.76-1.5-2.35-.73-.59-1.73-.88-3-.88-.69,0-1.41.12-2.16.37-.75.24-1.52.58-2.3,1.02-.78.43-1.55.93-2.33,1.5-.78.57-1.53,1.16-2.26,1.78-.04.64-.07,1.34-.07,2.1v10.99c0,1.89.02,3.53.07,4.94.04,1.41.11,2.62.2,3.65s.19,1.88.3,2.56c.11.69.23,1.27.37,1.73v.13h-7.69v-.13c.13-.47.26-1.04.38-1.73.12-.69.22-1.54.3-2.56.08-1.02.14-2.24.2-3.65.06-1.41.08-3.06.08-4.94v-8.06Z"/>
        <path class="cls-2" d="M180.6,92.76h-8.5l.02-.65c.13-.45.25-1.02.37-1.69.12-.66.22-1.51.29-2.52.08-1.02.14-2.23.2-3.63.06-1.41.08-3.07.08-4.93v-8.06c0-1.86-.03-3.52-.08-4.93-.05-1.4-.12-2.61-.2-3.63-.08-1.01-.18-1.86-.29-2.52-.12-.68-.25-1.25-.37-1.69l-.02-.24v-.4h8.5l-.02.67c-.17.49-.32,1.09-.43,1.8-.09.51-.16,1.13-.22,1.86.61-.49,1.23-.98,1.86-1.45.9-.67,1.83-1.28,2.78-1.8.95-.52,1.93-.94,2.92-1.26,1-.32,2.03-.49,3.04-.49.61,0,1.15.03,1.61.09.46.06.88.14,1.26.24.37.1.71.22,1.01.35l1.15.48-1.82,7.08-1.19-.28-.06-.23c-.24-.89-.7-1.61-1.36-2.14-.66-.53-1.58-.79-2.74-.79-.64,0-1.33.12-2.04.35-.73.24-1.48.57-2.22.98-.75.42-1.52.91-2.29,1.47-.71.52-1.42,1.08-2.11,1.65-.04.58-.05,1.21-.05,1.9v10.99c0,1.92.02,3.54.07,4.93.04,1.39.11,2.61.2,3.62.09,1,.19,1.86.3,2.53.11.67.23,1.24.36,1.68l.02.24v.4ZM173,91.95h6.71c-.1-.4-.19-.87-.28-1.4-.11-.7-.22-1.57-.3-2.59-.09-1.03-.16-2.27-.2-3.67s-.07-3.02-.07-4.96v-10.99c0-.77.02-1.49.07-2.13v-.17s.14-.11.14-.11c.74-.63,1.51-1.23,2.29-1.8.79-.58,1.59-1.09,2.37-1.52.79-.44,1.59-.8,2.37-1.05.79-.26,1.56-.39,2.29-.39,1.35,0,2.45.33,3.25.97.72.57,1.23,1.33,1.54,2.24l1.43-5.56-.51-.22c-.27-.12-.58-.22-.92-.32-.34-.09-.72-.17-1.14-.22-.43-.05-.94-.08-1.51-.08-.93,0-1.87.15-2.79.45-.94.3-1.87.71-2.78,1.2-.91.5-1.82,1.08-2.68,1.73-.87.65-1.72,1.33-2.55,2.02l-.72.6.05-.93c.07-1.16.16-2.13.29-2.87.09-.57.21-1.08.34-1.53h-6.69c.1.4.19.86.29,1.39.12.69.23,1.57.31,2.6.08,1.03.14,2.25.2,3.66.06,1.42.08,3.09.08,4.96v8.06c0,1.87-.03,3.54-.08,4.96-.06,1.41-.12,2.64-.2,3.66-.08,1.04-.18,1.91-.31,2.6-.09.53-.19.99-.29,1.39Z"/>
      </g>
      <g>
        <path class="cls-2" d="M196.18,82.54c0-1.75.36-3.27,1.08-4.56.72-1.29,1.68-2.39,2.88-3.3,1.2-.91,2.56-1.65,4.09-2.21,1.53-.57,3.12-1.01,4.76-1.33,1.64-.32,3.26-.54,4.86-.67,1.6-.12,3.06-.19,4.39-.22v-1.7c0-1.46-.19-2.73-.57-3.79-.38-1.07-.91-1.95-1.6-2.65-.69-.7-1.52-1.22-2.48-1.56-.97-.34-2.03-.52-3.18-.52-.8,0-1.59.07-2.36.2-.78.13-1.58.35-2.41.67s-1.71.73-2.63,1.27c-.92.53-1.91,1.21-2.98,2.03l-.33-.2,2.26-4.69c.73-.33,1.45-.6,2.16-.82.71-.21,1.43-.38,2.16-.52.73-.13,1.48-.23,2.25-.28s1.57-.08,2.41-.08c2.33,0,4.32.28,5.98.85,1.65.57,3.01,1.34,4.06,2.33,1.05.99,1.83,2.14,2.31,3.46.49,1.32.73,2.74.73,4.24v10.85c0,1.89.03,3.53.08,4.94.06,1.41.12,2.62.2,3.65.08,1.02.18,1.88.3,2.56.12.69.25,1.27.38,1.73v.13h-7.36v-.13c.11-.35.19-.75.25-1.2.06-.44.1-.98.15-1.6-.47.4-1.02.81-1.65,1.23-.63.42-1.35.81-2.16,1.15s-1.71.62-2.7.83c-.99.21-2.07.32-3.25.32-3.86,0-6.85-.9-8.95-2.71-2.11-1.81-3.16-4.38-3.16-7.71ZM218.25,72.85c-2.02.02-3.96.14-5.83.35-1.86.21-3.51.65-4.94,1.31-1.43.67-2.57,1.61-3.43,2.85-.85,1.23-1.28,2.87-1.28,4.91,0,2.62.65,4.62,1.96,5.99,1.31,1.38,3.12,2.06,5.43,2.06,1.07,0,2.04-.15,2.91-.45.88-.3,1.65-.68,2.33-1.13.68-.46,1.25-.95,1.71-1.5.47-.54.82-1.07,1.07-1.58.04-.84.07-1.78.07-2.81v-10Z"/>
        <path class="cls-2" d="M208.29,93.36c-3.94,0-7.04-.95-9.22-2.81-2.19-1.88-3.3-4.58-3.3-8.01,0-1.82.38-3.42,1.13-4.76.75-1.33,1.75-2.48,2.99-3.42,1.23-.93,2.64-1.69,4.2-2.27,1.54-.57,3.16-1.02,4.82-1.35,1.65-.32,3.31-.55,4.91-.67,1.45-.11,2.8-.18,4.02-.21v-1.3c0-1.41-.18-2.64-.54-3.66-.36-1-.86-1.84-1.5-2.5-.64-.65-1.43-1.15-2.33-1.47-1.56-.56-3.51-.61-5.34-.3-.75.13-1.54.35-2.34.65-.81.3-1.68.72-2.57,1.24-.9.52-1.89,1.19-2.94,2l-.22.17-.88-.53,2.49-5.16.13-.06c.74-.34,1.49-.62,2.22-.84.72-.21,1.46-.39,2.21-.53.75-.14,1.52-.23,2.29-.29.78-.06,1.6-.08,2.44-.08,2.36,0,4.42.29,6.11.87,1.7.58,3.11,1.39,4.21,2.42,1.09,1.03,1.91,2.24,2.42,3.62.5,1.36.76,2.84.76,4.38v10.85c0,1.88.03,3.54.08,4.93.05,1.41.12,2.63.2,3.63.08,1,.17,1.85.29,2.52.12.67.24,1.24.37,1.69l.02.24v.4h-8.16l.02-.66c.1-.33.18-.71.24-1.13.02-.2.05-.41.07-.65-.29.22-.61.44-.94.67-.65.43-1.4.83-2.23,1.18-.83.35-1.76.64-2.77.86-1.01.22-2.13.32-3.33.32ZM210.42,59.63c1.19,0,2.31.18,3.31.54,1.02.36,1.9.92,2.63,1.66.73.74,1.3,1.68,1.69,2.8.39,1.1.59,2.43.59,3.93v2.1h-.4c-1.31.03-2.78.1-4.37.22-1.57.12-3.19.34-4.81.66-1.62.32-3.2.76-4.7,1.31-1.49.55-2.83,1.27-3.99,2.16-1.15.87-2.08,1.94-2.77,3.17-.68,1.22-1.03,2.69-1.03,4.36,0,3.19,1.02,5.68,3.02,7.4,2.02,1.74,4.95,2.62,8.69,2.62,1.14,0,2.21-.1,3.16-.31.96-.21,1.84-.48,2.62-.81.78-.33,1.49-.71,2.1-1.11.61-.41,1.15-.81,1.61-1.2l.74-.63-.07.97c-.05.63-.1,1.17-.15,1.62-.04.31-.09.61-.16.88h6.37c-.1-.4-.2-.87-.29-1.39-.12-.7-.23-1.57-.31-2.6-.08-1.01-.14-2.24-.2-3.66-.06-1.4-.08-3.07-.08-4.96v-10.85c0-1.45-.24-2.83-.71-4.1-.47-1.25-1.21-2.37-2.21-3.31-1.01-.94-2.33-1.7-3.92-2.24-1.6-.55-3.57-.83-5.84-.83-.82,0-1.62.03-2.38.08-.74.05-1.49.15-2.2.28-.72.13-1.43.3-2.12.51-.65.19-1.31.44-1.98.74l-1.82,3.77c.84-.61,1.63-1.14,2.37-1.56.93-.54,1.84-.98,2.69-1.29.85-.32,1.69-.55,2.49-.69.8-.14,1.62-.21,2.43-.21ZM210.16,90.73c-2.41,0-4.34-.74-5.72-2.19-1.38-1.45-2.08-3.56-2.08-6.27,0-2.12.46-3.84,1.35-5.14.89-1.28,2.1-2.29,3.59-2.98,1.46-.68,3.17-1.13,5.07-1.35,1.87-.21,3.85-.33,5.87-.35h.41s0,10.41,0,10.41c0,1.03-.02,1.99-.07,2.83l-.04.15c-.26.54-.64,1.1-1.12,1.67-.49.57-1.09,1.1-1.8,1.57-.7.47-1.52.87-2.43,1.18-.92.31-1.94.47-3.04.47ZM217.84,73.26c-1.85.03-3.66.15-5.38.34-1.81.21-3.43.64-4.82,1.28-1.36.63-2.46,1.54-3.27,2.71-.8,1.16-1.21,2.73-1.21,4.68,0,2.5.62,4.42,1.85,5.71,1.22,1.29,2.95,1.94,5.13,1.94,1.01,0,1.95-.14,2.78-.43.84-.29,1.59-.65,2.24-1.08.64-.43,1.19-.91,1.63-1.43.42-.49.75-.97.97-1.42.04-.81.06-1.72.06-2.71v-9.59Z"/>
      </g>
      <g>
        <path class="cls-2" d="M232.36,89.43c0-.49.09-.95.28-1.38.19-.43.44-.81.77-1.13.32-.32.7-.58,1.13-.77.43-.19.89-.28,1.38-.28s.98.09,1.41.28c.43.19.81.44,1.13.77.32.32.58.7.77,1.13.19.43.28.89.28,1.38,0,1.02-.34,1.88-1.03,2.56-.69.69-1.54,1.03-2.56,1.03-.49,0-.95-.09-1.38-.28-.43-.19-.81-.44-1.13-.77-.32-.32-.58-.7-.77-1.13-.19-.43-.28-.9-.28-1.41Z"/>
        <path class="cls-2" d="M235.92,93.43c-.54,0-1.06-.11-1.54-.32-.48-.21-.9-.49-1.26-.85-.36-.35-.64-.78-.85-1.26-.21-.48-.32-1.01-.32-1.58s.11-1.06.32-1.54c.21-.48.49-.9.85-1.26.35-.36.78-.64,1.26-.85.99-.43,2.17-.41,3.12,0,.48.21.9.49,1.26.85.35.35.64.78.85,1.26.21.48.32,1,.32,1.54,0,1.13-.39,2.09-1.15,2.85-.76.76-1.72,1.15-2.85,1.15ZM235.92,86.27c-.43,0-.84.08-1.22.25-.38.17-.72.4-1.01.68-.28.28-.51.62-.68,1.01-.17.38-.25.79-.25,1.22,0,.45.08.87.25,1.25.17.39.4.72.68,1.01.28.28.62.51,1.01.68.38.17.79.25,1.22.25.92,0,1.66-.3,2.28-.91.61-.61.91-1.36.91-2.28,0-.43-.08-.84-.25-1.22-.17-.38-.4-.72-.68-1.01-.28-.28-.62-.51-1.01-.68-.38-.16-.8-.25-1.25-.25Z"/>
      </g>
      <g>
        <path class="cls-2" d="M306.76,51.94l-.3.13c-1.73-1.6-3.81-2.87-6.24-3.83-2.43-.95-5.1-1.43-8.01-1.43s-5.36.44-7.69,1.32c-2.33.88-4.33,2.15-6.01,3.81-1.68,1.66-2.98,3.71-3.91,6.13-.93,2.42-1.4,5.17-1.4,8.26,0,3.4.44,6.56,1.33,9.5.89,2.94,2.21,5.49,3.96,7.64,1.75,2.15,3.94,3.85,6.57,5.08,2.63,1.23,5.7,1.85,9.2,1.85,1.26,0,2.53-.13,3.79-.4,1.27-.27,2.48-.66,3.65-1.18,1.16-.52,2.26-1.15,3.3-1.9,1.03-.74,1.97-1.59,2.81-2.55l.37.23-2.66,6.79c-1.66.64-3.5,1.14-5.51,1.48-2.01.34-4.03.52-6.07.52-4.11,0-7.86-.59-11.27-1.78-3.41-1.19-6.34-2.87-8.79-5.04-2.45-2.17-4.36-4.79-5.73-7.84-1.37-3.05-2.05-6.44-2.05-10.17,0-2.11.27-4.18.82-6.22.54-2.04,1.34-3.98,2.38-5.83,1.04-1.84,2.33-3.53,3.86-5.08,1.53-1.54,3.28-2.88,5.24-4.01,1.96-1.13,4.13-2.01,6.49-2.65,2.36-.63,4.92-.95,7.67-.95,4.28,0,8.26.65,11.92,1.96l2.26,6.16Z"/>
        <path class="cls-2" d="M293.95,93.79c-4.13,0-7.97-.61-11.4-1.8-3.44-1.2-6.44-2.92-8.92-5.12-2.48-2.2-4.44-4.89-5.83-7.98-1.38-3.09-2.08-6.57-2.08-10.33,0-2.14.28-4.26.83-6.33.55-2.07,1.36-4.06,2.42-5.92,1.05-1.86,2.38-3.6,3.93-5.16,1.55-1.56,3.34-2.93,5.33-4.08,1.98-1.14,4.2-2.05,6.59-2.69,2.39-.64,5-.96,7.78-.96,4.31,0,8.37.67,12.05,1.99l.18.06,2.46,6.69-.89.4-.19-.18c-1.69-1.56-3.74-2.82-6.11-3.75-2.37-.93-5.02-1.4-7.86-1.4s-5.27.43-7.55,1.29c-2.27.85-4.24,2.11-5.87,3.72-1.63,1.62-2.91,3.63-3.82,5.98-.91,2.36-1.37,5.09-1.37,8.11,0,3.34.44,6.5,1.31,9.39.87,2.88,2.18,5.4,3.89,7.5,1.71,2.1,3.87,3.77,6.43,4.97,2.56,1.2,5.6,1.81,9.03,1.81,1.23,0,2.48-.13,3.71-.39,1.23-.26,2.43-.65,3.56-1.15,1.13-.51,2.22-1.13,3.22-1.86,1-.72,1.93-1.56,2.75-2.49l.23-.26.94.6-2.85,7.26-.17.06c-1.68.65-3.56,1.16-5.59,1.5-2.02.35-4.09.52-6.14.52ZM292.58,44.22c-2.7,0-5.25.31-7.57.94-2.32.62-4.47,1.5-6.39,2.61-1.92,1.11-3.66,2.44-5.16,3.95-1.5,1.51-2.78,3.19-3.8,4.99-1.02,1.8-1.81,3.73-2.34,5.73-.53,2-.8,4.06-.8,6.12,0,3.65.68,7.02,2.01,10,1.33,2.98,3.23,5.58,5.63,7.7,2.4,2.13,5.31,3.8,8.65,4.96,3.35,1.17,7.1,1.76,11.14,1.76,2.01,0,4.03-.17,6.01-.51,1.91-.33,3.68-.8,5.27-1.4l2.25-5.74c-.69.69-1.43,1.33-2.22,1.9-1.05.76-2.18,1.41-3.37,1.94-1.19.53-2.44.94-3.73,1.21-1.29.27-2.59.41-3.88.41-3.55,0-6.7-.63-9.38-1.89-2.67-1.25-4.93-3-6.72-5.19-1.78-2.18-3.14-4.8-4.04-7.78-.9-2.96-1.35-6.2-1.35-9.62,0-3.12.48-5.95,1.43-8.4.95-2.46,2.3-4.57,4-6.27,1.71-1.7,3.78-3.01,6.15-3.9,2.37-.89,5-1.34,7.83-1.34s5.69.49,8.15,1.46c2.15.85,4.06,1.96,5.68,3.31l-1.87-5.08c-3.55-1.25-7.46-1.88-11.6-1.88Z"/>
      </g>
      <g>
        <path class="cls-2" d="M329.57,92.96c-2.46,0-4.77-.39-6.92-1.17-2.15-.78-4.03-1.91-5.63-3.41-1.6-1.5-2.86-3.35-3.78-5.56-.92-2.21-1.38-4.73-1.38-7.57,0-2.51.42-4.83,1.27-6.97.84-2.14,2.01-4,3.5-5.58,1.49-1.58,3.22-2.81,5.21-3.7,1.99-.89,4.13-1.33,6.44-1.33s4.41.39,6.36,1.18c1.95.79,3.64,1.93,5.08,3.43,1.43,1.5,2.56,3.35,3.4,5.56.83,2.21,1.28,4.72,1.35,7.54-2.51-.04-5.02-.08-7.52-.1-2.51-.02-5.12-.03-7.82-.03-1.93,0-3.81.01-5.64.03-1.83.02-3.48.06-4.94.1.13,2.31.49,4.39,1.08,6.26.59,1.86,1.4,3.46,2.43,4.78,1.03,1.32,2.28,2.34,3.76,3.05,1.48.71,3.15,1.07,5.01,1.07,1.29,0,2.5-.15,3.65-.45,1.14-.3,2.18-.72,3.11-1.25s1.76-1.16,2.5-1.88c.73-.72,1.35-1.5,1.86-2.35l.4.2-2.46,5.93c-1.2.62-2.63,1.15-4.29,1.58-1.66.43-3.66.65-5.99.65ZM325.14,72.65c2.22,0,4.44,0,6.67-.02,2.23-.01,4.26-.05,6.08-.12-.2-1.93-.58-3.66-1.13-5.19-.56-1.53-1.27-2.83-2.13-3.89-.87-1.07-1.89-1.89-3.06-2.46-1.18-.58-2.48-.87-3.89-.87-1.29,0-2.47.28-3.55.85-1.08.57-2.01,1.38-2.81,2.45-.8,1.07-1.44,2.37-1.93,3.91-.49,1.54-.78,3.3-.87,5.28,1,.04,2.05.07,3.16.07h3.46Z"/>
        <path class="cls-2" d="M329.57,93.36c-2.5,0-4.87-.4-7.06-1.19-2.19-.79-4.13-1.97-5.76-3.5-1.63-1.53-2.94-3.45-3.87-5.7-.94-2.25-1.41-4.85-1.41-7.73,0-2.55.44-4.94,1.29-7.12.86-2.18,2.06-4.1,3.58-5.7,1.52-1.61,3.31-2.88,5.34-3.79,2.03-.91,4.25-1.37,6.61-1.37s4.52.41,6.51,1.21c2,.81,3.75,1.99,5.22,3.52,1.46,1.53,2.63,3.45,3.48,5.7.84,2.24,1.31,4.82,1.37,7.67v.42s-.41,0-.41,0c-2.51-.04-5.01-.08-7.52-.1-2.51-.02-5.11-.03-7.82-.03-1.93,0-3.81.01-5.64.03-1.66.02-3.16.05-4.52.09.15,2.1.5,4.03,1.04,5.75.57,1.81,1.37,3.37,2.36,4.65.99,1.27,2.21,2.25,3.62,2.93,1.41.68,3.04,1.03,4.83,1.03,1.25,0,2.44-.15,3.54-.44,1.1-.29,2.12-.7,3.01-1.21.9-.51,1.71-1.12,2.41-1.82.7-.69,1.31-1.46,1.8-2.27l.19-.32,1.07.53-2.66,6.41-.13.07c-1.22.63-2.69,1.18-4.38,1.61-1.69.44-3.74.66-6.09.66ZM328.27,58.07c-2.24,0-4.35.44-6.28,1.3-1.93.86-3.64,2.08-5.08,3.6-1.44,1.53-2.59,3.36-3.41,5.45-.82,2.08-1.24,4.38-1.24,6.83,0,2.77.45,5.27,1.35,7.42.89,2.14,2.13,3.97,3.68,5.42,1.55,1.45,3.4,2.57,5.49,3.33,2.1.76,4.38,1.14,6.79,1.14s4.27-.21,5.89-.64c1.57-.41,2.94-.91,4.08-1.48l1.78-4.28c-.3.37-.63.73-.98,1.08-.75.74-1.62,1.4-2.58,1.94-.96.55-2.04.98-3.21,1.29-1.17.31-2.43.46-3.75.46-1.92,0-3.66-.37-5.19-1.11-1.53-.73-2.84-1.8-3.9-3.16-1.06-1.35-1.9-3-2.5-4.9-.6-1.89-.97-4.03-1.1-6.36l-.02-.41h.41c1.47-.06,3.12-.09,4.95-.11,1.83-.02,3.71-.03,5.65-.03,2.71,0,5.32.01,7.83.03,2.37.02,4.73.05,7.1.09-.1-2.59-.54-4.94-1.31-6.99-.81-2.15-1.92-3.97-3.31-5.42-1.38-1.45-3.05-2.57-4.94-3.33-1.9-.76-3.99-1.15-6.21-1.15ZM325.14,73.05h-3.46c-1.12,0-2.19-.02-3.18-.07l-.4-.02.02-.4c.09-2,.39-3.81.88-5.38.5-1.58,1.17-2.94,1.99-4.03.83-1.11,1.82-1.97,2.95-2.56,1.13-.59,2.39-.9,3.73-.9,1.47,0,2.84.31,4.07.91,1.22.6,2.3,1.47,3.2,2.57.89,1.09,1.63,2.44,2.2,4.01.56,1.56.95,3.34,1.15,5.29l.04.43-.43.02c-1.83.07-3.88.11-6.09.12-2.23.01-4.46.02-6.68.02ZM318.94,72.2c.87.03,1.78.05,2.74.05h3.46c2.22,0,4.44,0,6.67-.02,2.03-.01,3.92-.04,5.63-.1-.21-1.72-.56-3.29-1.06-4.67-.54-1.48-1.23-2.75-2.06-3.78-.83-1.02-1.81-1.81-2.93-2.36-1.12-.55-2.37-.82-3.72-.82-1.22,0-2.34.27-3.36.8-1.02.53-1.92,1.32-2.68,2.33-.77,1.02-1.4,2.3-1.87,3.79-.44,1.4-.72,3-.83,4.77Z"/>
      </g>
      <g>
        <path class="cls-2" d="M379.27,85.27l-2.46,5.93c-.6.27-1.29.51-2.06.73-.78.22-1.58.41-2.41.57-.83.15-1.67.27-2.51.35-.84.08-1.64.12-2.4.12-2.69,0-5.17-.39-7.44-1.18-2.28-.79-4.24-1.94-5.89-3.45-1.65-1.51-2.95-3.36-3.88-5.56-.93-2.2-1.4-4.7-1.4-7.52,0-2.51.48-4.83,1.45-6.97.97-2.14,2.31-4,4.03-5.58,1.72-1.58,3.75-2.81,6.08-3.7,2.33-.89,4.86-1.33,7.59-1.33,1.24,0,2.57.11,3.99.32,1.42.21,2.68.48,3.8.82l2.36,5.66-.4.23c-.56-.69-1.22-1.31-1.98-1.88-.77-.57-1.61-1.05-2.53-1.45-.92-.4-1.89-.71-2.91-.93-1.02-.22-2.06-.33-3.13-.33-1.73,0-3.31.31-4.73.92-1.42.61-2.64,1.49-3.66,2.65-1.02,1.15-1.81,2.57-2.38,4.24-.57,1.68-.85,3.58-.85,5.71,0,2.4.27,4.63.82,6.69.54,2.06,1.35,3.86,2.43,5.38s2.43,2.71,4.06,3.56c1.63.85,3.55,1.28,5.74,1.28,1.02,0,2.04-.13,3.05-.38,1.01-.25,1.96-.62,2.86-1.1.9-.48,1.72-1.05,2.48-1.71.75-.67,1.39-1.42,1.9-2.26l.4.2Z"/>
        <path class="cls-2" d="M367.42,93.36c-2.72,0-5.26-.41-7.57-1.2-2.32-.8-4.35-1.99-6.03-3.53-1.69-1.54-3.03-3.46-3.98-5.7-.95-2.24-1.43-4.82-1.43-7.68,0-2.55.5-4.96,1.48-7.14.98-2.18,2.37-4.1,4.12-5.71,1.75-1.6,3.84-2.87,6.2-3.77,2.37-.9,4.97-1.36,7.73-1.36,1.25,0,2.62.11,4.05.32,1.44.21,2.73.49,3.85.83l.18.05,2.57,6.16-1,.59-.22-.27c-.53-.66-1.18-1.27-1.91-1.81-.74-.55-1.56-1.02-2.45-1.4-.89-.39-1.84-.69-2.84-.91-.99-.21-2.01-.32-3.04-.32-1.67,0-3.2.3-4.57.88-1.36.58-2.54,1.44-3.52,2.54-.98,1.11-1.75,2.49-2.3,4.11-.55,1.63-.83,3.5-.83,5.58,0,2.35.27,4.57.8,6.59.53,2.01,1.33,3.77,2.37,5.25,1.03,1.46,2.35,2.62,3.92,3.44,1.57.82,3.43,1.24,5.55,1.24.98,0,1.97-.12,2.95-.37.97-.25,1.91-.6,2.77-1.06.86-.46,1.67-1.02,2.4-1.66.72-.63,1.33-1.37,1.82-2.17l.19-.32,1.07.53-2.67,6.42-.15.07c-.62.27-1.33.53-2.12.75-.78.22-1.61.42-2.45.57-.84.16-1.7.28-2.55.35-.86.08-1.68.12-2.43.12ZM367.95,58.07c-2.67,0-5.17.44-7.45,1.31-2.27.87-4.27,2.08-5.95,3.62-1.67,1.53-2.99,3.36-3.93,5.44-.94,2.08-1.41,4.37-1.41,6.81,0,2.75.46,5.23,1.37,7.37.91,2.13,2.18,3.96,3.78,5.42,1.61,1.47,3.54,2.6,5.75,3.36,2.22.77,4.68,1.16,7.31,1.16.73,0,1.53-.04,2.36-.12.82-.08,1.66-.19,2.48-.34.82-.15,1.62-.34,2.38-.56.69-.2,1.32-.41,1.86-.65l1.8-4.33c-.32.38-.68.74-1.06,1.08-.78.68-1.64,1.28-2.56,1.77-.92.49-1.92.87-2.95,1.13-1.04.26-2.1.4-3.14.4-2.25,0-4.25-.45-5.93-1.33-1.68-.88-3.09-2.12-4.2-3.69-1.1-1.55-1.94-3.4-2.49-5.51-.55-2.09-.83-4.37-.83-6.79,0-2.16.29-4.13.87-5.84.58-1.72,1.41-3.19,2.46-4.38,1.06-1.19,2.34-2.12,3.81-2.75,1.46-.63,3.11-.95,4.89-.95,1.09,0,2.17.12,3.22.34,1.05.23,2.05.55,2.99.96.95.41,1.82.91,2.61,1.49.5.37.96.77,1.38,1.19l-1.9-4.55c-1.04-.3-2.24-.55-3.56-.75-1.4-.21-2.72-.31-3.94-.31Z"/>
      </g>
      <g>
        <path class="cls-2" d="M386.22,71.28c0-1.89-.03-3.53-.08-4.94-.06-1.41-.12-2.62-.2-3.65-.08-1.02-.18-1.87-.3-2.56-.12-.69-.25-1.27-.38-1.73v-.13h7.69v.13c-.13.47-.26,1.04-.37,1.73-.11.69-.21,1.54-.3,2.56-.09,1.02-.16,2.24-.2,3.65s-.07,3.06-.07,4.94v8.06c0,1.89.02,3.53.07,4.94s.11,2.62.2,3.65c.09,1.02.19,1.88.3,2.56.11.69.23,1.27.37,1.73v.13h-7.69v-.13c.13-.47.26-1.04.38-1.73.12-.69.22-1.54.3-2.56.08-1.02.14-2.24.2-3.65.05-1.41.08-3.06.08-4.94v-8.06ZM385.53,48.18c0-.49.09-.95.28-1.38.19-.43.44-.81.75-1.13.31-.32.68-.58,1.12-.77s.9-.28,1.41-.28.98.09,1.41.28c.43.19.81.44,1.13.77.32.32.58.7.77,1.13.19.43.28.89.28,1.38,0,1.02-.34,1.88-1.03,2.56-.69.69-1.54,1.03-2.56,1.03-.51,0-.98-.09-1.41-.28s-.8-.44-1.12-.77-.56-.7-.75-1.13c-.19-.43-.28-.9-.28-1.41Z"/>
        <path class="cls-2" d="M393.35,92.76h-8.5l.02-.65c.13-.45.25-1.02.37-1.69.12-.67.22-1.51.29-2.52.08-1.02.14-2.23.2-3.63.06-1.42.08-3.08.08-4.93v-8.06c0-1.85-.03-3.51-.08-4.93-.06-1.4-.12-2.61-.2-3.63-.08-1.01-.18-1.86-.29-2.52-.12-.68-.25-1.25-.37-1.69l-.02-.24v-.4h8.5l-.02.65c-.13.45-.25,1.02-.36,1.68-.11.67-.21,1.52-.29,2.53-.09,1.01-.16,2.23-.2,3.62-.04,1.4-.07,3.06-.07,4.93v8.06c0,1.87.02,3.53.07,4.93.04,1.39.11,2.61.2,3.62.09,1.01.19,1.86.29,2.53.11.67.23,1.24.36,1.68l.02.24v.4ZM385.75,91.95h6.71c-.1-.4-.19-.87-.28-1.4-.11-.69-.21-1.56-.3-2.59-.09-1.03-.16-2.26-.2-3.67-.04-1.41-.07-3.07-.07-4.96v-8.06c0-1.88.02-3.55.07-4.96.04-1.4.11-2.64.2-3.67.09-1.03.19-1.9.3-2.59.08-.53.18-.99.28-1.4h-6.71c.1.4.19.86.29,1.39.12.69.23,1.57.31,2.6.08,1.03.14,2.24.2,3.66.06,1.43.08,3.1.08,4.96v8.06c0,1.86-.03,3.53-.08,4.96-.06,1.42-.12,2.64-.2,3.66-.08,1.04-.18,1.91-.31,2.6-.09.53-.19.99-.29,1.39ZM389.09,52.18c-.56,0-1.09-.11-1.58-.32-.48-.21-.9-.5-1.24-.85-.34-.36-.62-.78-.83-1.25-.21-.48-.32-1.01-.32-1.58s.11-1.06.32-1.54c.21-.47.49-.89.83-1.25.35-.36.77-.65,1.25-.85.97-.42,2.19-.42,3.15,0,.48.21.9.49,1.26.85.36.36.64.78.85,1.26.21.48.32,1,.32,1.54,0,1.13-.39,2.09-1.15,2.85-.76.76-1.72,1.15-2.85,1.15ZM389.09,45.02c-.45,0-.87.08-1.25.25-.38.17-.71.39-.99.68-.28.29-.5.63-.67,1.01-.16.38-.25.79-.25,1.22,0,.45.08.87.25,1.25.17.39.39.73.67,1.01.27.28.6.51.99.68.38.16.8.25,1.25.25.92,0,1.66-.3,2.28-.91.61-.61.91-1.36.91-2.28,0-.43-.08-.84-.25-1.22-.17-.38-.4-.72-.68-1.01-.28-.28-.62-.51-1.01-.68-.38-.17-.8-.25-1.25-.25Z"/>
      </g>
      <g>
        <path class="cls-2" d="M402.67,55.6c0-1.89-.03-3.53-.08-4.94-.06-1.41-.12-2.62-.2-3.64-.08-1.02-.18-1.88-.3-2.56s-.25-1.27-.38-1.73v-.13h7.69v.13c-.13.47-.26,1.04-.37,1.73-.11.69-.21,1.54-.3,2.56-.09,1.02-.16,2.24-.2,3.64-.04,1.41-.07,3.06-.07,4.94v23.74c0,1.89.02,3.53.07,4.94s.11,2.62.2,3.65c.09,1.02.19,1.88.3,2.56.11.69.23,1.27.37,1.73v.13h-7.69v-.13c.13-.47.26-1.04.38-1.73.12-.69.22-1.54.3-2.56.08-1.02.14-2.24.2-3.65.05-1.41.08-3.06.08-4.94v-23.74Z"/>
        <path class="cls-2" d="M409.8,92.76h-8.5l.02-.65c.13-.45.25-1.02.37-1.69.12-.66.22-1.51.29-2.52.08-1.02.14-2.23.2-3.63.06-1.42.08-3.08.08-4.93v-23.74c0-1.85-.03-3.51-.08-4.93-.06-1.4-.12-2.61-.2-3.63-.08-1.01-.18-1.86-.29-2.52-.12-.68-.25-1.25-.37-1.69l-.02-.24v-.4h8.5l-.02.65c-.13.45-.25,1.02-.36,1.68-.11.67-.21,1.52-.29,2.53-.09,1.01-.16,2.23-.2,3.62-.04,1.4-.07,3.06-.07,4.93v23.74c0,1.87.02,3.53.07,4.93.04,1.39.11,2.61.2,3.62.09,1.01.19,1.86.29,2.53.11.67.23,1.24.36,1.68l.02.24v.4ZM402.19,91.95h6.71c-.1-.4-.19-.87-.28-1.4-.11-.69-.21-1.56-.3-2.59-.09-1.03-.16-2.26-.2-3.67-.04-1.41-.07-3.07-.07-4.96v-23.74c0-1.88.02-3.55.07-4.96.04-1.41.11-2.64.2-3.67.09-1.03.19-1.9.3-2.59.08-.53.18-.99.28-1.4h-6.71c.1.4.2.86.29,1.39.12.69.23,1.57.31,2.6.08,1.02.14,2.24.2,3.66.06,1.43.08,3.1.08,4.96v23.74c0,1.86-.03,3.53-.08,4.96-.06,1.42-.12,2.64-.2,3.66-.08,1.04-.18,1.91-.31,2.6-.09.53-.19.99-.29,1.39Z"/>
      </g>
      <g>
        <path class="cls-2" d="M419.11,71.28c0-1.89-.03-3.53-.08-4.94-.06-1.41-.12-2.62-.2-3.65-.08-1.02-.18-1.87-.3-2.56-.12-.69-.25-1.27-.38-1.73v-.13h7.69v.13c-.13.47-.26,1.04-.37,1.73-.11.69-.21,1.54-.3,2.56-.09,1.02-.16,2.24-.2,3.65s-.07,3.06-.07,4.94v8.06c0,1.89.02,3.53.07,4.94s.11,2.62.2,3.65c.09,1.02.19,1.88.3,2.56.11.69.23,1.27.37,1.73v.13h-7.69v-.13c.13-.47.26-1.04.38-1.73.12-.69.22-1.54.3-2.56.08-1.02.14-2.24.2-3.65.05-1.41.08-3.06.08-4.94v-8.06ZM418.42,48.18c0-.49.09-.95.28-1.38.19-.43.44-.81.75-1.13.31-.32.68-.58,1.12-.77s.9-.28,1.41-.28.98.09,1.41.28c.43.19.81.44,1.13.77.32.32.58.7.77,1.13.19.43.28.89.28,1.38,0,1.02-.34,1.88-1.03,2.56-.69.69-1.54,1.03-2.56,1.03-.51,0-.98-.09-1.41-.28s-.8-.44-1.12-.77-.56-.7-.75-1.13c-.19-.43-.28-.9-.28-1.41Z"/>
        <path class="cls-2" d="M426.24,92.76h-8.5l.02-.65c.13-.45.25-1.02.37-1.69.12-.67.22-1.51.29-2.52.08-1.02.14-2.23.2-3.63.06-1.42.08-3.08.08-4.93v-8.06c0-1.85-.03-3.51-.08-4.93-.06-1.4-.12-2.61-.2-3.63-.08-1.01-.18-1.86-.29-2.52-.12-.68-.25-1.25-.37-1.69l-.02-.24v-.4h8.5l-.02.65c-.13.45-.25,1.02-.36,1.68-.11.67-.21,1.52-.29,2.53-.09,1.01-.16,2.23-.2,3.62-.04,1.4-.07,3.06-.07,4.93v8.06c0,1.87.02,3.53.07,4.93.04,1.39.11,2.61.2,3.62.09,1.01.19,1.86.29,2.53.11.67.23,1.24.36,1.68l.02.24v.4ZM418.64,91.95h6.71c-.1-.4-.19-.87-.28-1.4-.11-.69-.21-1.56-.3-2.59-.09-1.03-.16-2.26-.2-3.67-.04-1.41-.07-3.07-.07-4.96v-8.06c0-1.88.02-3.55.07-4.96.04-1.4.11-2.64.2-3.67.09-1.03.19-1.9.3-2.59.08-.53.18-.99.28-1.4h-6.71c.1.4.19.86.29,1.39.12.69.23,1.57.31,2.6.08,1.03.14,2.24.2,3.66.06,1.43.08,3.1.08,4.96v8.06c0,1.86-.03,3.53-.08,4.96-.06,1.42-.12,2.64-.2,3.66-.08,1.04-.18,1.91-.31,2.6-.09.53-.19.99-.29,1.39ZM421.98,52.18c-.56,0-1.09-.11-1.58-.32-.48-.21-.9-.5-1.24-.85-.34-.36-.62-.78-.83-1.25-.21-.48-.32-1.01-.32-1.58s.11-1.06.32-1.54c.21-.47.49-.89.83-1.25.35-.36.77-.65,1.25-.85.97-.42,2.19-.42,3.15,0,.48.21.9.49,1.26.85.36.36.64.78.85,1.26.21.48.32,1,.32,1.54,0,1.13-.39,2.09-1.15,2.85-.76.76-1.72,1.15-2.85,1.15ZM421.98,45.02c-.45,0-.87.08-1.25.25-.38.17-.71.39-.99.68-.28.29-.5.63-.67,1.01-.16.38-.25.79-.25,1.22,0,.45.08.87.25,1.25.17.39.39.73.67,1.01.27.28.6.51.99.68.38.16.8.25,1.25.25.92,0,1.66-.3,2.28-.91.61-.61.91-1.36.91-2.28,0-.43-.08-.84-.25-1.22-.17-.38-.4-.72-.68-1.01-.28-.28-.62-.51-1.01-.68-.38-.17-.8-.25-1.25-.25Z"/>
      </g>
      <g>
        <path class="cls-2" d="M432.7,82.54c0-1.75.36-3.27,1.08-4.56.72-1.29,1.68-2.39,2.88-3.3,1.2-.91,2.56-1.65,4.09-2.21,1.53-.57,3.12-1.01,4.76-1.33,1.64-.32,3.26-.54,4.86-.67,1.6-.12,3.06-.19,4.39-.22v-1.7c0-1.46-.19-2.73-.57-3.79-.38-1.07-.91-1.95-1.6-2.65-.69-.7-1.52-1.22-2.48-1.56-.97-.34-2.03-.52-3.18-.52-.8,0-1.59.07-2.36.2-.78.13-1.58.35-2.41.67s-1.71.73-2.63,1.27c-.92.53-1.91,1.21-2.98,2.03l-.33-.2,2.26-4.69c.73-.33,1.45-.6,2.16-.82.71-.21,1.43-.38,2.16-.52.73-.13,1.48-.23,2.25-.28s1.57-.08,2.41-.08c2.33,0,4.32.28,5.98.85,1.65.57,3.01,1.34,4.06,2.33,1.05.99,1.83,2.14,2.31,3.46.49,1.32.73,2.74.73,4.24v10.85c0,1.89.03,3.53.08,4.94.06,1.41.12,2.62.2,3.65.08,1.02.18,1.88.3,2.56.12.69.25,1.27.38,1.73v.13h-7.36v-.13c.11-.35.19-.75.25-1.2.06-.44.1-.98.15-1.6-.47.4-1.02.81-1.65,1.23-.63.42-1.35.81-2.16,1.15s-1.71.62-2.7.83c-.99.21-2.07.32-3.25.32-3.86,0-6.85-.9-8.95-2.71-2.11-1.81-3.16-4.38-3.16-7.71ZM454.77,72.85c-2.02.02-3.96.14-5.83.35-1.86.21-3.51.65-4.94,1.31-1.43.67-2.57,1.61-3.43,2.85-.85,1.23-1.28,2.87-1.28,4.91,0,2.62.65,4.62,1.96,5.99,1.31,1.38,3.12,2.06,5.43,2.06,1.07,0,2.04-.15,2.91-.45.88-.3,1.65-.68,2.33-1.13.68-.46,1.25-.95,1.71-1.5.47-.54.82-1.07,1.07-1.58.04-.84.07-1.78.07-2.81v-10Z"/>
        <path class="cls-2" d="M444.81,93.36c-3.94,0-7.04-.95-9.22-2.81-2.19-1.88-3.3-4.58-3.3-8.01,0-1.82.38-3.42,1.13-4.76.75-1.33,1.75-2.48,2.99-3.42,1.23-.93,2.64-1.69,4.2-2.27,1.54-.57,3.16-1.02,4.82-1.35,1.65-.32,3.31-.55,4.91-.67,1.45-.11,2.8-.18,4.02-.21v-1.3c0-1.41-.18-2.64-.54-3.66-.36-1-.86-1.84-1.5-2.5-.64-.65-1.43-1.15-2.33-1.47-1.56-.56-3.51-.61-5.34-.3-.75.13-1.54.35-2.34.65-.81.3-1.68.72-2.57,1.24-.9.52-1.89,1.19-2.94,2l-.22.17-.88-.53,2.49-5.16.13-.06c.74-.34,1.49-.62,2.22-.84.72-.21,1.46-.39,2.21-.53.75-.14,1.52-.23,2.29-.29.78-.06,1.6-.08,2.44-.08,2.36,0,4.42.29,6.11.87,1.7.58,3.11,1.39,4.21,2.42,1.09,1.03,1.91,2.24,2.42,3.62.5,1.36.76,2.84.76,4.38v10.85c0,1.88.03,3.54.08,4.93.05,1.41.12,2.63.2,3.63.08,1,.17,1.85.29,2.52.12.67.24,1.24.37,1.69l.02.24v.4h-8.16l.02-.66c.1-.33.18-.71.24-1.13.02-.2.05-.41.07-.65-.29.22-.61.44-.94.67-.65.43-1.4.83-2.23,1.18-.83.35-1.76.64-2.77.86-1.01.22-2.13.32-3.33.32ZM446.94,59.63c1.19,0,2.31.18,3.31.54,1.02.36,1.9.92,2.63,1.66.73.74,1.3,1.68,1.69,2.8.39,1.1.59,2.43.59,3.93v2.1h-.4c-1.31.03-2.78.1-4.37.22-1.57.12-3.19.34-4.81.66-1.62.32-3.2.76-4.7,1.31-1.49.55-2.83,1.27-3.99,2.16-1.15.87-2.08,1.94-2.77,3.17-.68,1.22-1.03,2.69-1.03,4.36,0,3.19,1.02,5.68,3.02,7.4,2.02,1.74,4.95,2.62,8.69,2.62,1.14,0,2.21-.1,3.16-.31.96-.21,1.84-.48,2.62-.81.78-.33,1.49-.71,2.1-1.11.61-.41,1.15-.81,1.61-1.2l.74-.63-.07.97c-.05.63-.1,1.17-.15,1.62-.04.31-.09.61-.16.88h6.37c-.1-.4-.2-.87-.29-1.39-.12-.7-.23-1.57-.31-2.6-.08-1.01-.14-2.24-.2-3.66-.06-1.4-.08-3.07-.08-4.96v-10.85c0-1.45-.24-2.83-.71-4.1-.47-1.25-1.21-2.37-2.21-3.31-1.01-.94-2.33-1.7-3.92-2.24-1.6-.55-3.57-.83-5.84-.83-.82,0-1.62.03-2.38.08-.74.05-1.49.15-2.2.28-.72.13-1.43.3-2.12.51-.65.19-1.31.44-1.98.74l-1.82,3.77c.84-.61,1.63-1.14,2.37-1.56.93-.54,1.84-.98,2.69-1.29.85-.32,1.69-.55,2.49-.69.8-.14,1.62-.21,2.43-.21ZM446.68,90.73c-2.41,0-4.34-.74-5.72-2.19-1.38-1.45-2.08-3.56-2.08-6.27,0-2.12.46-3.84,1.35-5.14.89-1.28,2.1-2.29,3.59-2.98,1.46-.68,3.17-1.13,5.07-1.35,1.87-.21,3.85-.33,5.87-.35h.41s0,10.41,0,10.41c0,1.03-.02,1.99-.07,2.83l-.04.15c-.26.54-.64,1.1-1.12,1.67-.49.57-1.09,1.1-1.8,1.57-.7.47-1.52.87-2.43,1.18-.92.31-1.94.47-3.04.47ZM454.36,73.26c-1.85.03-3.66.15-5.38.34-1.81.21-3.43.64-4.82,1.28-1.36.63-2.46,1.54-3.27,2.71-.8,1.16-1.21,2.73-1.21,4.68,0,2.5.62,4.42,1.85,5.71,1.22,1.29,2.95,1.94,5.13,1.94,1.01,0,1.95-.14,2.78-.43.84-.29,1.59-.65,2.24-1.08.64-.43,1.19-.91,1.63-1.43.42-.49.75-.97.97-1.42.04-.81.06-1.72.06-2.71v-9.59Z"/>
      </g>
      <g>
        <path class="cls-2" d="M523.71,92.36v-.13c.04-.11.08-.28.1-.5.02-.22.03-.42.03-.6,0-.69-.09-1.45-.28-2.28-.19-.83-.55-1.87-1.08-3.11l-4.03-9.05c-1.24-.04-2.9-.07-4.96-.07h-11.77c-1.63,0-3.1.02-4.41.07l-3.83,8.79c-.33.82-.69,1.72-1.07,2.7-.38.98-.57,1.96-.57,2.96,0,.29.02.53.07.72.04.19.09.32.13.38v.13h-6.79v-.13c.4-.42.9-1.17,1.5-2.25.6-1.08,1.25-2.42,1.96-4.04l19.08-42.31h2.66l18.08,40.68c.42.95.86,1.88,1.31,2.78.46.9.88,1.7,1.28,2.41.4.71.75,1.31,1.07,1.8.31.49.52.8.63.93v.13h-9.12ZM502.14,73.75c1.29,0,2.61,0,3.96-.02,1.35-.01,2.68-.02,3.98-.03,1.3-.01,2.55-.02,3.74-.03,1.2-.01,2.29-.03,3.26-.05l-9.35-21.14-9.19,21.27h3.6Z"/>
        <path class="cls-2" d="M533.23,92.76h-9.93l.03-.69s.05-.14.07-.39c.02-.21.03-.39.03-.56,0-.65-.09-1.39-.27-2.19-.18-.8-.54-1.83-1.06-3.04l-3.92-8.82c-1.22-.04-2.79-.06-4.69-.06h-11.77c-1.5,0-2.89.02-4.14.06l-3.73,8.55c-.33.81-.68,1.71-1.06,2.68-.36.92-.54,1.87-.54,2.82,0,.26.02.47.06.62.05.2.08.25.08.25l.05.09v.67s-7.58,0-7.58,0v-.7l.11-.12c.37-.39.86-1.12,1.44-2.17.59-1.06,1.24-2.41,1.95-4.01l19.18-42.55h3.19l18.18,40.92c.42.95.86,1.88,1.31,2.76.45.89.88,1.69,1.27,2.4.4.7.75,1.3,1.05,1.78.37.59.53.81.6.89l.09.11v.68ZM524.19,91.95h7.96c-.08-.13-.18-.28-.29-.44-.31-.49-.67-1.1-1.08-1.82-.4-.71-.83-1.52-1.29-2.43-.45-.89-.9-1.83-1.32-2.8l-17.97-40.44h-2.14l-18.97,42.07c-.71,1.62-1.38,3-1.98,4.08-.42.75-.78,1.34-1.11,1.78h5.53s0-.01,0-.02c-.05-.22-.08-.48-.08-.81,0-1.05.2-2.09.59-3.11.38-.98.73-1.88,1.07-2.7l3.93-9.03h.25c1.32-.05,2.81-.08,4.42-.08h11.77c2.04,0,3.72.02,4.97.07h.25s4.13,9.29,4.13,9.29c.54,1.27.91,2.34,1.11,3.19.19.86.29,1.66.29,2.37,0,.19-.01.4-.04.64,0,.07-.01.13-.02.19ZM502.14,74.15h-4.21l9.8-22.68,9.97,22.54h-.6c-.98.04-2.07.05-3.27.06l-7.72.07c-1.35.01-2.68.02-3.96.02ZM499.16,73.34h2.98c1.29,0,2.61,0,3.96-.02l7.72-.07c.95,0,1.84-.02,2.65-.04l-8.74-19.74-8.58,19.86Z"/>
      </g>
      <g>
        <path class="cls-2" d="M564.95,85.27l-2.46,5.93c-.6.27-1.29.51-2.06.73-.78.22-1.58.41-2.41.57-.83.15-1.67.27-2.51.35-.84.08-1.64.12-2.4.12-2.69,0-5.17-.39-7.44-1.18-2.28-.79-4.24-1.94-5.89-3.45-1.65-1.51-2.95-3.36-3.88-5.56-.93-2.2-1.4-4.7-1.4-7.52,0-2.51.48-4.83,1.45-6.97.97-2.14,2.31-4,4.03-5.58,1.72-1.58,3.75-2.81,6.08-3.7,2.33-.89,4.86-1.33,7.59-1.33,1.24,0,2.57.11,3.99.32,1.42.21,2.68.48,3.8.82l2.36,5.66-.4.23c-.56-.69-1.22-1.31-1.98-1.88-.77-.57-1.61-1.05-2.53-1.45-.92-.4-1.89-.71-2.91-.93-1.02-.22-2.06-.33-3.13-.33-1.73,0-3.31.31-4.73.92-1.42.61-2.64,1.49-3.66,2.65s-1.81,2.57-2.38,4.24c-.57,1.68-.85,3.58-.85,5.71,0,2.4.27,4.63.82,6.69.54,2.06,1.35,3.86,2.43,5.38s2.43,2.71,4.06,3.56c1.63.85,3.55,1.28,5.74,1.28,1.02,0,2.04-.13,3.05-.38,1.01-.25,1.96-.62,2.86-1.1.9-.48,1.72-1.05,2.48-1.71.75-.67,1.39-1.42,1.9-2.26l.4.2Z"/>
        <path class="cls-2" d="M553.1,93.36c-2.72,0-5.26-.41-7.57-1.2-2.32-.8-4.35-1.99-6.03-3.53-1.69-1.54-3.03-3.46-3.98-5.7-.95-2.24-1.43-4.82-1.43-7.68,0-2.55.5-4.96,1.48-7.14.98-2.18,2.37-4.1,4.12-5.71,1.75-1.6,3.84-2.87,6.2-3.77,2.37-.9,4.97-1.36,7.73-1.36,1.25,0,2.62.11,4.05.32,1.44.21,2.73.49,3.85.83l.18.05,2.57,6.16-1,.59-.22-.27c-.53-.66-1.18-1.27-1.91-1.81-.74-.55-1.56-1.02-2.45-1.4-.89-.39-1.84-.69-2.84-.91-.99-.21-2.01-.32-3.04-.32-1.67,0-3.2.3-4.57.88-1.36.58-2.54,1.44-3.52,2.54-.98,1.11-1.75,2.49-2.3,4.11-.55,1.63-.83,3.5-.83,5.58,0,2.35.27,4.57.8,6.59.53,2.01,1.33,3.77,2.37,5.25,1.03,1.46,2.35,2.62,3.92,3.44,1.57.82,3.43,1.24,5.55,1.24.98,0,1.97-.12,2.95-.37.97-.25,1.91-.6,2.77-1.06.86-.46,1.67-1.02,2.4-1.66.72-.63,1.33-1.37,1.82-2.17l.19-.32,1.07.53-2.67,6.42-.15.07c-.62.27-1.33.53-2.12.75-.78.22-1.61.42-2.45.57-.84.16-1.7.28-2.55.35-.86.08-1.68.12-2.43.12ZM553.64,58.07c-2.67,0-5.17.44-7.45,1.31-2.27.87-4.27,2.08-5.95,3.62-1.67,1.53-2.99,3.36-3.93,5.44-.94,2.08-1.41,4.37-1.41,6.81,0,2.75.46,5.23,1.37,7.37.91,2.13,2.18,3.96,3.78,5.42,1.61,1.47,3.54,2.6,5.75,3.36,2.22.77,4.68,1.16,7.31,1.16.73,0,1.53-.04,2.36-.12.82-.08,1.66-.19,2.48-.34.82-.15,1.62-.34,2.38-.56.69-.2,1.32-.41,1.86-.65l1.8-4.33c-.32.38-.68.74-1.06,1.08-.78.68-1.64,1.28-2.56,1.77-.92.49-1.92.87-2.95,1.13-1.04.26-2.1.4-3.14.4-2.25,0-4.25-.45-5.93-1.33-1.68-.88-3.09-2.12-4.2-3.69-1.1-1.55-1.94-3.4-2.49-5.51-.55-2.09-.83-4.37-.83-6.79,0-2.16.29-4.13.87-5.84.58-1.72,1.41-3.19,2.46-4.38,1.06-1.19,2.34-2.12,3.81-2.75,1.46-.63,3.11-.95,4.89-.95,1.09,0,2.17.12,3.22.34,1.05.23,2.05.55,2.99.96.95.41,1.82.91,2.61,1.49.5.37.96.77,1.38,1.19l-1.9-4.55c-1.04-.3-2.24-.55-3.56-.75-1.4-.21-2.72-.31-3.94-.31Z"/>
      </g>
      <g>
        <path class="cls-2" d="M586.63,92.96c-2.46,0-4.77-.39-6.92-1.17-2.15-.78-4.03-1.91-5.63-3.41-1.6-1.5-2.86-3.35-3.78-5.56-.92-2.21-1.38-4.73-1.38-7.57,0-2.51.42-4.83,1.27-6.97.84-2.14,2.01-4,3.5-5.58,1.49-1.58,3.22-2.81,5.21-3.7,1.99-.89,4.13-1.33,6.44-1.33s4.41.39,6.36,1.18c1.95.79,3.64,1.93,5.08,3.43,1.43,1.5,2.56,3.35,3.4,5.56.83,2.21,1.28,4.72,1.35,7.54-2.51-.04-5.02-.08-7.52-.1-2.51-.02-5.12-.03-7.82-.03-1.93,0-3.81.01-5.64.03-1.83.02-3.48.06-4.94.1.13,2.31.49,4.39,1.08,6.26.59,1.86,1.4,3.46,2.43,4.78,1.03,1.32,2.28,2.34,3.76,3.05,1.48.71,3.15,1.07,5.01,1.07,1.29,0,2.5-.15,3.65-.45,1.14-.3,2.18-.72,3.11-1.25s1.76-1.16,2.5-1.88c.73-.72,1.35-1.5,1.86-2.35l.4.2-2.46,5.93c-1.2.62-2.63,1.15-4.29,1.58-1.66.43-3.66.65-5.99.65ZM582.2,72.65c2.22,0,4.44,0,6.67-.02,2.23-.01,4.26-.05,6.08-.12-.2-1.93-.58-3.66-1.13-5.19-.56-1.53-1.27-2.83-2.13-3.89-.87-1.07-1.89-1.89-3.06-2.46-1.18-.58-2.48-.87-3.89-.87-1.29,0-2.47.28-3.55.85-1.08.57-2.01,1.38-2.81,2.45-.8,1.07-1.44,2.37-1.93,3.91s-.78,3.3-.87,5.28c1,.04,2.05.07,3.16.07h3.46Z"/>
        <path class="cls-2" d="M586.63,93.36c-2.5,0-4.87-.4-7.06-1.19-2.19-.79-4.13-1.97-5.76-3.5-1.63-1.53-2.94-3.45-3.87-5.7-.94-2.25-1.41-4.85-1.41-7.73,0-2.55.44-4.94,1.29-7.12.86-2.18,2.06-4.1,3.58-5.7,1.52-1.61,3.31-2.88,5.34-3.79,2.03-.91,4.25-1.37,6.61-1.37s4.52.41,6.51,1.21c2,.81,3.75,1.99,5.22,3.52,1.46,1.53,2.63,3.45,3.48,5.7.84,2.24,1.31,4.82,1.37,7.67v.42s-.41,0-.41,0c-2.51-.04-5.01-.08-7.52-.1-2.51-.02-5.11-.03-7.82-.03-1.93,0-3.81.01-5.64.03-1.66.02-3.16.05-4.52.09.15,2.1.5,4.03,1.04,5.75.57,1.81,1.37,3.37,2.36,4.65.99,1.27,2.21,2.25,3.62,2.93,1.41.68,3.04,1.03,4.83,1.03,1.25,0,2.44-.15,3.54-.44,1.1-.29,2.12-.7,3.01-1.21.9-.51,1.71-1.12,2.41-1.82.7-.69,1.31-1.46,1.8-2.27l.19-.32,1.07.53-2.66,6.41-.13.07c-1.22.63-2.69,1.18-4.38,1.61-1.69.44-3.74.66-6.09.66ZM585.33,58.07c-2.24,0-4.35.44-6.28,1.3-1.93.86-3.64,2.08-5.08,3.6-1.44,1.53-2.59,3.36-3.41,5.45-.82,2.08-1.24,4.38-1.24,6.83,0,2.77.45,5.27,1.35,7.42.89,2.14,2.13,3.97,3.68,5.42,1.55,1.45,3.4,2.57,5.49,3.33,2.1.76,4.38,1.14,6.79,1.14s4.27-.21,5.89-.64c1.57-.41,2.94-.91,4.08-1.48l1.78-4.28c-.3.37-.63.73-.98,1.08-.75.74-1.62,1.4-2.58,1.94-.96.55-2.04.98-3.21,1.29-1.17.31-2.43.46-3.75.46-1.92,0-3.66-.37-5.19-1.11-1.53-.73-2.84-1.8-3.9-3.16-1.06-1.35-1.9-3-2.5-4.9-.6-1.89-.97-4.03-1.1-6.36l-.02-.41h.41c1.47-.06,3.12-.09,4.95-.11,1.83-.02,3.71-.03,5.65-.03,2.71,0,5.32.01,7.83.03,2.37.02,4.73.05,7.1.09-.1-2.59-.54-4.94-1.31-6.99-.81-2.15-1.92-3.97-3.31-5.42-1.38-1.45-3.05-2.57-4.94-3.33-1.9-.76-3.99-1.15-6.21-1.15ZM582.2,73.05h-3.46c-1.12,0-2.19-.02-3.18-.07l-.4-.02.02-.4c.09-2,.39-3.81.88-5.38.5-1.58,1.17-2.94,1.99-4.03.83-1.11,1.82-1.97,2.95-2.56,1.13-.59,2.39-.9,3.73-.9,1.47,0,2.84.31,4.07.91,1.22.6,2.3,1.47,3.2,2.57.89,1.09,1.63,2.44,2.2,4.01.56,1.56.95,3.34,1.15,5.29l.04.43-.43.02c-1.83.07-3.88.11-6.09.12-2.23.01-4.46.02-6.68.02ZM576,72.2c.87.03,1.78.05,2.74.05h3.46c2.22,0,4.44,0,6.67-.02,2.03-.01,3.92-.04,5.63-.1-.21-1.72-.56-3.29-1.06-4.67-.54-1.48-1.23-2.75-2.06-3.78-.83-1.02-1.81-1.81-2.93-2.36-1.12-.55-2.37-.82-3.72-.82-1.22,0-2.34.27-3.36.8-1.02.53-1.92,1.32-2.68,2.33-.77,1.02-1.4,2.3-1.87,3.79-.44,1.4-.72,3-.83,4.77Z"/>
      </g>
      <g>
        <path class="cls-2" d="M611.79,58.27v.13c-.04.11-.08.28-.1.5-.02.22-.03.42-.03.6,0,.69.1,1.45.3,2.28.2.83.55,1.87,1.07,3.11l7.96,18.94,8.06-18.68c.33-.82.69-1.72,1.07-2.7.38-.98.57-1.96.57-2.96,0-.29-.02-.53-.07-.72-.04-.19-.09-.32-.13-.38v-.13h5.99v.13c-.4.42-.9,1.17-1.51,2.25-.61,1.08-1.26,2.43-1.95,4.04l-12.28,28.13h-1.96l-11.38-26.5c-.4-.98-.83-1.91-1.28-2.81-.46-.9-.89-1.7-1.3-2.41-.41-.71-.77-1.3-1.08-1.78s-.52-.78-.63-.92v-.13h8.72Z"/>
        <path class="cls-2" d="M620.98,93.23h-2.49l-11.49-26.74c-.4-.97-.82-1.9-1.27-2.79-.44-.88-.88-1.68-1.29-2.39-.41-.7-.76-1.29-1.07-1.76-.3-.46-.5-.75-.6-.88l-.09-.11v-.68h9.53l-.03.69s-.05.15-.07.39c-.02.21-.03.4-.03.56,0,.65.1,1.39.29,2.19.19.81.55,1.84,1.05,3.05l7.59,18.06,7.68-17.8c.33-.81.68-1.71,1.06-2.68.36-.93.54-1.87.54-2.82,0-.26-.02-.47-.06-.62-.05-.2-.08-.25-.08-.26l-.05-.09v-.66s6.79,0,6.79,0v.7l-.11.12c-.38.4-.87,1.13-1.46,2.17-.6,1.06-1.25,2.4-1.93,4l-12.39,28.38ZM619.02,92.42h1.43l12.18-27.89c.69-1.62,1.35-3,1.97-4.08.42-.75.79-1.33,1.12-1.78h-4.73s0,.01,0,.02c.05.22.08.49.08.81,0,1.04-.2,2.09-.59,3.11-.38.98-.74,1.88-1.07,2.7l-8.43,19.55-8.32-19.82c-.52-1.26-.88-2.32-1.09-3.18-.21-.86-.31-1.66-.31-2.37,0-.19.01-.4.04-.64,0-.07.01-.13.02-.19h-7.55c.08.12.18.26.28.42.31.48.68,1.08,1.09,1.8.42.72.86,1.54,1.31,2.43.46.91.89,1.86,1.3,2.84l11.28,26.25Z"/>
      </g>
      <g>
        <path class="cls-2" d="M656.03,92.96c-2.46,0-4.77-.39-6.92-1.17-2.15-.78-4.03-1.91-5.63-3.41-1.6-1.5-2.86-3.35-3.78-5.56-.92-2.21-1.38-4.73-1.38-7.57,0-2.51.42-4.83,1.27-6.97.84-2.14,2.01-4,3.5-5.58s3.22-2.81,5.21-3.7c1.99-.89,4.13-1.33,6.44-1.33s4.41.39,6.36,1.18c1.95.79,3.64,1.93,5.08,3.43,1.43,1.5,2.56,3.35,3.4,5.56.83,2.21,1.28,4.72,1.35,7.54-2.51-.04-5.02-.08-7.52-.1-2.51-.02-5.12-.03-7.82-.03-1.93,0-3.81.01-5.64.03-1.83.02-3.48.06-4.94.1.13,2.31.49,4.39,1.08,6.26.59,1.86,1.4,3.46,2.43,4.78,1.03,1.32,2.28,2.34,3.76,3.05,1.48.71,3.15,1.07,5.01,1.07,1.29,0,2.5-.15,3.65-.45,1.14-.3,2.18-.72,3.11-1.25.93-.53,1.76-1.16,2.5-1.88.73-.72,1.35-1.5,1.86-2.35l.4.2-2.46,5.93c-1.2.62-2.63,1.15-4.29,1.58-1.66.43-3.66.65-5.99.65ZM651.61,72.65c2.22,0,4.44,0,6.67-.02,2.23-.01,4.26-.05,6.08-.12-.2-1.93-.58-3.66-1.13-5.19-.56-1.53-1.27-2.83-2.13-3.89-.87-1.07-1.89-1.89-3.06-2.46-1.18-.58-2.48-.87-3.89-.87-1.29,0-2.47.28-3.55.85-1.08.57-2.01,1.38-2.81,2.45-.8,1.07-1.44,2.37-1.93,3.91s-.78,3.3-.87,5.28c1,.04,2.05.07,3.16.07h3.46Z"/>
        <path class="cls-2" d="M656.03,93.36c-2.5,0-4.87-.4-7.06-1.19-2.19-.79-4.13-1.97-5.76-3.5-1.63-1.53-2.94-3.45-3.87-5.7-.94-2.25-1.41-4.85-1.41-7.73,0-2.55.44-4.94,1.29-7.12.86-2.18,2.06-4.1,3.58-5.7,1.52-1.61,3.31-2.88,5.34-3.79,2.03-.91,4.25-1.37,6.61-1.37s4.52.41,6.51,1.21c2,.81,3.75,1.99,5.22,3.52,1.46,1.53,2.63,3.45,3.48,5.7.84,2.24,1.31,4.82,1.37,7.67v.42s-.41,0-.41,0c-2.51-.04-5.01-.08-7.52-.1-2.51-.02-5.11-.03-7.82-.03-1.93,0-3.81.01-5.64.03-1.66.02-3.16.05-4.52.09.15,2.1.5,4.03,1.04,5.75.57,1.81,1.37,3.37,2.36,4.65.99,1.27,2.21,2.25,3.62,2.93,1.41.68,3.04,1.03,4.83,1.03,1.25,0,2.44-.15,3.54-.44,1.1-.29,2.12-.7,3.01-1.21.9-.51,1.71-1.12,2.41-1.82.7-.69,1.31-1.46,1.8-2.27l.19-.32,1.07.53-2.66,6.41-.13.07c-1.22.63-2.69,1.18-4.38,1.61-1.69.44-3.74.66-6.09.66ZM654.74,58.07c-2.24,0-4.35.44-6.28,1.3-1.93.86-3.64,2.08-5.08,3.6-1.44,1.53-2.59,3.36-3.41,5.45-.82,2.08-1.24,4.38-1.24,6.83,0,2.77.45,5.27,1.35,7.42.89,2.14,2.13,3.97,3.68,5.42,1.55,1.45,3.4,2.57,5.49,3.33,2.1.76,4.38,1.14,6.79,1.14s4.27-.21,5.89-.64c1.57-.41,2.94-.91,4.08-1.48l1.78-4.28c-.3.37-.63.73-.98,1.08-.75.74-1.62,1.4-2.58,1.94-.96.55-2.04.98-3.21,1.29-1.17.31-2.43.46-3.75.46-1.92,0-3.66-.37-5.19-1.11-1.53-.73-2.84-1.8-3.9-3.16-1.06-1.35-1.9-3-2.5-4.9-.6-1.89-.96-4.03-1.1-6.36l-.02-.41h.41c1.47-.06,3.12-.09,4.95-.11,1.83-.02,3.71-.03,5.65-.03,2.71,0,5.32.01,7.83.03,2.37.02,4.73.05,7.1.09-.1-2.59-.54-4.94-1.31-6.99-.81-2.15-1.92-3.97-3.31-5.42-1.38-1.45-3.05-2.57-4.94-3.33-1.9-.76-3.99-1.15-6.21-1.15ZM651.61,73.05h-3.46c-1.12,0-2.19-.02-3.18-.07l-.4-.02.02-.4c.09-2,.39-3.81.88-5.38.5-1.58,1.17-2.94,1.99-4.03.83-1.11,1.82-1.97,2.95-2.56,1.13-.59,2.39-.9,3.73-.9,1.47,0,2.84.31,4.07.91,1.22.6,2.3,1.47,3.2,2.57.89,1.09,1.63,2.44,2.2,4.01.56,1.56.95,3.34,1.15,5.29l.04.43-.43.02c-1.83.07-3.88.11-6.09.12-2.23.01-4.46.02-6.68.02ZM645.41,72.2c.87.03,1.78.05,2.74.05h3.46c2.22,0,4.44,0,6.67-.02,2.03-.01,3.92-.04,5.63-.1-.21-1.72-.56-3.29-1.06-4.67-.54-1.48-1.23-2.75-2.06-3.78-.83-1.02-1.81-1.81-2.93-2.36-1.12-.55-2.37-.82-3.72-.82-1.22,0-2.34.27-3.36.8-1.02.53-1.92,1.32-2.68,2.33-.77,1.02-1.4,2.3-1.87,3.79-.44,1.4-.72,3-.83,4.77Z"/>
      </g>
      <g>
        <path class="cls-2" d="M693.25,57.67c.91,0,1.82.08,2.73.23.91.16,1.8.38,2.66.67.87.29,1.69.64,2.46,1.07.78.42,1.48.9,2.1,1.43v-5.46c0-1.89-.02-3.53-.07-4.94-.04-1.41-.11-2.62-.2-3.64-.09-1.02-.19-1.88-.3-2.56-.11-.69-.23-1.27-.37-1.73v-.13h7.69v.13c-.13.47-.26,1.04-.38,1.73s-.22,1.54-.3,2.56-.14,2.24-.2,3.64c-.06,1.41-.08,3.06-.08,4.94v23.74c0,1.89.03,3.53.08,4.94.06,1.41.12,2.62.2,3.65s.18,1.88.3,2.56c.12.69.25,1.27.38,1.73v.13h-7.36v-.13c.07-.18.12-.44.17-.78.04-.34.1-.77.17-1.28-1.13.71-2.55,1.35-4.26,1.93-1.71.58-3.7.87-5.96.87-2.64,0-5.04-.41-7.19-1.23-2.15-.82-3.99-2-5.51-3.53-1.52-1.53-2.69-3.39-3.51-5.58-.82-2.19-1.23-4.64-1.23-7.37,0-2.51.44-4.83,1.33-6.97.89-2.14,2.13-4,3.73-5.58,1.6-1.58,3.5-2.81,5.69-3.7,2.2-.89,4.61-1.33,7.22-1.33ZM703.21,66.92c-.89-2.33-2.16-4.05-3.81-5.16-1.65-1.11-3.51-1.66-5.58-1.66-1.73,0-3.33.31-4.79.92s-2.72,1.49-3.76,2.65-1.86,2.57-2.45,4.24c-.59,1.68-.88,3.58-.88,5.71,0,2.4.27,4.63.8,6.69.53,2.06,1.31,3.86,2.35,5.38,1.03,1.52,2.31,2.71,3.85,3.56,1.53.85,3.3,1.28,5.29,1.28,1.04,0,2.02-.12,2.93-.37.91-.24,1.74-.55,2.5-.93.75-.38,1.42-.79,2-1.25.58-.46,1.05-.9,1.43-1.35.04-.95.08-2.04.1-3.26.02-1.22.03-2.56.03-4.03v-12.42Z"/>
        <path class="cls-2" d="M692.72,93.36c-2.68,0-5.15-.42-7.33-1.26-2.2-.84-4.1-2.06-5.65-3.62-1.55-1.56-2.77-3.49-3.6-5.72-.83-2.22-1.26-4.75-1.26-7.52,0-2.55.46-4.95,1.36-7.13.9-2.18,2.19-4.1,3.82-5.71,1.63-1.61,3.59-2.88,5.82-3.78,2.24-.9,4.72-1.36,7.38-1.36.93,0,1.87.08,2.8.24.92.16,1.84.39,2.72.68.88.29,1.73.66,2.53,1.09.53.29,1.04.61,1.5.95v-4.62c0-1.86-.02-3.51-.07-4.93-.04-1.39-.11-2.61-.2-3.62-.09-1.01-.19-1.87-.3-2.53-.11-.67-.23-1.24-.36-1.68l-.02-.24v-.4h8.5l-.02.65c-.13.45-.25,1.02-.37,1.69-.12.67-.22,1.51-.29,2.52-.08,1-.14,2.22-.2,3.63-.06,1.4-.08,3.06-.08,4.93v23.74c0,1.87.03,3.53.08,4.93.05,1.41.12,2.63.2,3.63.08,1.01.18,1.86.29,2.52.12.67.25,1.24.37,1.69l.02.24v.4h-8.16l.03-.68c.04-.1.09-.3.14-.69l.06-.46c-1.02.56-2.24,1.08-3.62,1.55-1.74.59-3.79.89-6.09.89ZM693.25,58.07c-2.55,0-4.93.44-7.07,1.3-2.14.86-4.01,2.08-5.56,3.61-1.55,1.53-2.78,3.36-3.64,5.44-.86,2.08-1.3,4.38-1.3,6.82,0,2.67.41,5.1,1.21,7.23.8,2.12,1.95,3.95,3.42,5.43,1.47,1.48,3.28,2.64,5.37,3.44,2.1.8,4.47,1.21,7.05,1.21,2.21,0,4.17-.28,5.83-.84,1.67-.56,3.08-1.2,4.18-1.89l.72-.46-.28,2.13c-.02.17-.05.33-.08.46h6.38c-.1-.4-.2-.87-.29-1.39-.12-.69-.23-1.57-.31-2.6-.08-1.01-.14-2.24-.2-3.66-.06-1.41-.08-3.08-.08-4.96v-23.74c0-1.88.03-3.55.08-4.96.06-1.41.12-2.65.2-3.66.08-1.04.18-1.91.31-2.6.09-.52.19-.99.29-1.39h-6.71c.1.4.19.86.28,1.4.11.69.21,1.56.3,2.59.09,1.03.16,2.27.2,3.67.04,1.42.07,3.09.07,4.96v6.34l-.67-.57c-.6-.51-1.28-.98-2.03-1.38-.76-.41-1.56-.76-2.4-1.04-.84-.28-1.72-.5-2.6-.65-.89-.15-1.78-.23-2.66-.23ZM694.22,90.93c-2.06,0-3.9-.45-5.49-1.33-1.58-.88-2.92-2.12-3.98-3.69-1.05-1.55-1.86-3.4-2.4-5.5-.54-2.09-.81-4.37-.81-6.79,0-2.17.3-4.13.9-5.84.6-1.72,1.45-3.19,2.53-4.38,1.08-1.19,2.39-2.12,3.91-2.75,1.51-.63,3.17-.95,4.95-.95,2.14,0,4.09.58,5.8,1.73,1.72,1.15,3.05,2.95,3.96,5.35l.03.14v12.42c0,1.47-.01,2.81-.03,4.04-.02,1.23-.06,2.32-.1,3.27v.14s-.1.1-.1.1c-.39.46-.89.93-1.49,1.4-.59.47-1.29.9-2.07,1.29-.78.39-1.64.71-2.57.96-.94.25-1.96.38-3.03.38ZM693.82,60.5c-1.67,0-3.23.3-4.64.88-1.4.58-2.62,1.44-3.62,2.54-1,1.11-1.8,2.49-2.37,4.11-.57,1.62-.86,3.5-.86,5.58,0,2.35.26,4.57.79,6.59.52,2.01,1.29,3.78,2.29,5.25.99,1.46,2.24,2.62,3.71,3.44,1.46.82,3.18,1.23,5.1,1.23,1,0,1.95-.12,2.82-.35.88-.24,1.69-.54,2.42-.9.73-.36,1.38-.77,1.93-1.2.51-.4.94-.8,1.28-1.19.04-.92.07-1.95.09-3.11.02-1.22.03-2.56.03-4.02v-12.34c-.85-2.2-2.07-3.85-3.63-4.9-1.58-1.06-3.38-1.6-5.35-1.6Z"/>
      </g>
      <g>
        <path class="cls-2" d="M716.45,75.25c0-2.51.47-4.83,1.4-6.97.93-2.14,2.21-4,3.85-5.58,1.63-1.58,3.56-2.81,5.78-3.7,2.22-.89,4.6-1.33,7.16-1.33s4.87.42,7.07,1.25c2.21.83,4.13,2.01,5.78,3.55,1.64,1.53,2.93,3.4,3.88,5.59.94,2.2,1.41,4.66,1.41,7.39,0,2.29-.4,4.48-1.2,6.59-.8,2.11-1.97,3.97-3.53,5.59-1.55,1.62-3.46,2.91-5.71,3.88-2.25.97-4.84,1.45-7.77,1.45-2.49,0-4.83-.41-7.02-1.23-2.2-.82-4.12-2-5.76-3.53-1.64-1.53-2.94-3.39-3.89-5.58-.95-2.19-1.43-4.64-1.43-7.37ZM735.33,90.53c1.58,0,3.02-.31,4.34-.93,1.32-.62,2.46-1.52,3.41-2.7.95-1.18,1.7-2.61,2.23-4.29.53-1.69.8-3.59.8-5.73,0-2.4-.25-4.62-.77-6.67-.51-2.05-1.27-3.83-2.28-5.33-1.01-1.5-2.28-2.67-3.81-3.51-1.53-.84-3.32-1.27-5.36-1.27-1.58,0-3.02.31-4.33.92-1.31.61-2.45,1.49-3.41,2.65-.97,1.15-1.71,2.57-2.25,4.24-.53,1.68-.8,3.58-.8,5.71,0,2.4.26,4.63.78,6.69.52,2.06,1.29,3.86,2.31,5.38,1.02,1.52,2.29,2.71,3.81,3.56,1.52.85,3.29,1.28,5.31,1.28Z"/>
        <path class="cls-2" d="M734.56,93.36c-2.52,0-4.93-.42-7.17-1.26-2.24-.84-4.22-2.05-5.89-3.61-1.67-1.56-3.02-3.48-3.99-5.71-.97-2.23-1.47-4.76-1.47-7.54,0-2.55.48-4.95,1.43-7.13.95-2.18,2.27-4.1,3.93-5.71,1.66-1.6,3.65-2.88,5.91-3.78,2.26-.9,4.71-1.36,7.31-1.36s4.97.43,7.22,1.27c2.25.85,4.23,2.07,5.91,3.63,1.68,1.56,3.01,3.49,3.97,5.73.96,2.24,1.45,4.78,1.45,7.55,0,2.32-.41,4.59-1.22,6.73-.81,2.15-2.03,4.08-3.61,5.73-1.58,1.65-3.55,2.99-5.84,3.97-2.29.98-4.96,1.48-7.93,1.48ZM734.63,58.07c-2.49,0-4.85.44-7.01,1.3-2.16.87-4.06,2.08-5.64,3.61-1.59,1.53-2.85,3.36-3.76,5.45-.91,2.08-1.36,4.37-1.36,6.81,0,2.66.47,5.09,1.4,7.21.93,2.13,2.21,3.96,3.8,5.44,1.59,1.49,3.49,2.65,5.63,3.45,2.14.8,4.46,1.21,6.88,1.21,2.86,0,5.42-.48,7.61-1.42,2.19-.94,4.07-2.21,5.58-3.79,1.51-1.57,2.67-3.41,3.44-5.46.78-2.05,1.17-4.22,1.17-6.45,0-2.66-.47-5.09-1.38-7.23-.92-2.14-2.19-3.97-3.78-5.46-1.6-1.49-3.49-2.65-5.64-3.46-2.15-.81-4.48-1.22-6.93-1.22ZM735.33,90.93c-2.08,0-3.93-.45-5.51-1.33-1.57-.88-2.9-2.12-3.95-3.69-1.04-1.55-1.84-3.4-2.37-5.5-.53-2.08-.8-4.37-.8-6.79,0-2.16.28-4.13.82-5.83.55-1.72,1.33-3.19,2.32-4.38,1-1.19,2.19-2.12,3.55-2.75,1.36-.63,2.87-.95,4.5-.95,2.1,0,3.97.44,5.55,1.31,1.58.87,2.91,2.1,3.95,3.64,1.03,1.53,1.82,3.36,2.34,5.45.52,2.07.78,4.35.78,6.77,0,2.16-.27,4.13-.82,5.85-.55,1.73-1.32,3.22-2.3,4.43-.99,1.22-2.18,2.16-3.55,2.81-1.37.64-2.89.97-4.52.97ZM733.9,60.5c-1.51,0-2.91.29-4.16.88-1.25.58-2.35,1.44-3.27,2.54-.93,1.11-1.66,2.49-2.17,4.11-.52,1.63-.78,3.51-.78,5.59,0,2.35.26,4.57.77,6.59.51,2.01,1.27,3.78,2.26,5.25.98,1.46,2.22,2.62,3.67,3.44,1.45.82,3.17,1.23,5.11,1.23,1.51,0,2.91-.3,4.17-.89,1.26-.59,2.36-1.46,3.27-2.59.92-1.13,1.64-2.53,2.16-4.16.52-1.64.78-3.52.78-5.6,0-2.35-.25-4.57-.75-6.58-.5-2-1.25-3.75-2.22-5.2-.97-1.44-2.2-2.58-3.67-3.38-1.46-.81-3.2-1.21-5.16-1.21Z"/>
      </g>
    </g>
    <g>
      <path class="cls-2" d="M144.45,120.74c-.92-.85-1.99-1.52-3.21-2-1.22-.48-2.47-.72-3.76-.72s-2.54.25-3.68.74c-1.14.49-2.15,1.17-3.02,2.04-.88.86-1.56,1.86-2.04,2.99-.48,1.13-.72,2.35-.72,3.66s.24,2.54.72,3.68c.48,1.14,1.16,2.15,2.04,3.02.87.88,1.88,1.56,3.02,2.05,1.14.49,2.38.74,3.71.74,1.21,0,2.41-.24,3.62-.71,1.21-.47,2.28-1.1,3.22-1.89l1.55,1.81c-.75.59-1.59,1.12-2.53,1.58-.94.46-1.92.82-2.94,1.07-1.02.25-2.04.38-3.07.38-1.69,0-3.25-.3-4.7-.9-1.45-.6-2.72-1.44-3.81-2.51-1.1-1.07-1.95-2.32-2.56-3.75-.61-1.42-.92-2.95-.92-4.57s.31-3.13.94-4.54c.62-1.4,1.49-2.64,2.6-3.71,1.11-1.07,2.39-1.91,3.86-2.5,1.47-.59,3.04-.89,4.73-.89,1.05,0,2.09.13,3.11.38,1.02.25,1.98.61,2.89,1.07.91.46,1.74,1.02,2.48,1.68l-1.51,1.81ZM143.56,127.74h2.33v8.42h-2.33v-8.42Z"/>
      <path class="cls-2" d="M153.09,115.97h2.63v23.01h-2.63v-23.01Z"/>
      <path class="cls-2" d="M163.51,115.97h2.73l14.5,19.92-.69.23v-20.15h2.6v23.01h-2.69l-14.5-19.89.69-.23v20.12h-2.63v-23.01Z"/>
      <path class="cls-2" d="M190.47,115.97h15.61v2.3h-12.98v7.89h11.6v2.27h-11.6v8.28h13.41v2.27h-16.04v-23.01Z"/>
      <path class="cls-2" d="M229.35,120.9c-.88-.9-1.91-1.6-3.11-2.12-1.19-.51-2.43-.77-3.7-.77s-2.51.24-3.65.72c-1.14.48-2.14,1.15-2.99,2.02-.86.87-1.52,1.87-2.01,3.01-.48,1.14-.72,2.37-.72,3.68s.24,2.51.72,3.65c.48,1.14,1.15,2.14,2.01,2.99.85.86,1.85,1.53,2.99,2.02,1.14.49,2.36.74,3.65.74s2.49-.25,3.67-.74c1.17-.49,2.22-1.18,3.14-2.05l1.61,1.64c-.75.7-1.58,1.31-2.51,1.84-.93.52-1.9.93-2.91,1.22-1.01.28-2.05.43-3.12.43-1.67,0-3.22-.3-4.65-.9-1.43-.6-2.69-1.44-3.78-2.51-1.08-1.07-1.93-2.32-2.55-3.75-.61-1.42-.92-2.95-.92-4.57s.31-3.13.92-4.54c.61-1.4,1.47-2.64,2.56-3.71,1.1-1.07,2.37-1.91,3.81-2.5,1.45-.59,3.01-.89,4.7-.89,1.05,0,2.08.13,3.09.39,1.01.26,1.96.64,2.86,1.13.9.49,1.72,1.09,2.47,1.79l-1.58,1.77Z"/>
      <path class="cls-2" d="M245.85,115.81c1.66,0,3.23.3,4.68.89,1.46.59,2.73,1.42,3.83,2.5,1.1,1.07,1.96,2.31,2.58,3.71.62,1.4.94,2.92.94,4.54s-.31,3.14-.94,4.57c-.62,1.42-1.48,2.67-2.58,3.75-1.1,1.07-2.37,1.91-3.83,2.51-1.46.6-3.02.9-4.68.9s-3.26-.3-4.72-.9c-1.46-.6-2.73-1.44-3.83-2.51-1.1-1.07-1.95-2.32-2.58-3.75-.62-1.42-.94-2.95-.94-4.57s.31-3.14.94-4.55c.62-1.41,1.48-2.65,2.58-3.72,1.1-1.06,2.37-1.89,3.83-2.48,1.46-.59,3.03-.89,4.72-.89ZM245.85,118.04c-1.29,0-2.5.24-3.63.72-1.13.48-2.12,1.16-2.99,2.02-.87.86-1.55,1.87-2.04,3.01-.49,1.14-.74,2.36-.74,3.65s.25,2.54.74,3.68c.49,1.14,1.18,2.15,2.05,3.02s1.88,1.56,3.01,2.04c1.13.48,2.33.72,3.6.72s2.5-.24,3.63-.72c1.13-.48,2.12-1.16,2.97-2.04.86-.88,1.52-1.88,2.01-3.02.48-1.14.72-2.37.72-3.68s-.24-2.51-.72-3.65c-.48-1.14-1.15-2.14-2.01-3.01-.85-.87-1.85-1.54-2.97-2.02-1.13-.48-2.34-.72-3.63-.72Z"/>
      <path class="cls-2" d="M263.51,115.97h2.63v20.74h10.09v2.27h-12.72v-23.01Z"/>
      <path class="cls-2" d="M291.22,115.81c1.66,0,3.23.3,4.68.89,1.46.59,2.73,1.42,3.83,2.5,1.1,1.07,1.96,2.31,2.58,3.71.62,1.4.94,2.92.94,4.54s-.31,3.14-.94,4.57c-.62,1.42-1.48,2.67-2.58,3.75-1.1,1.07-2.37,1.91-3.83,2.51-1.46.6-3.02.9-4.68.9s-3.26-.3-4.72-.9c-1.46-.6-2.73-1.44-3.83-2.51-1.1-1.07-1.95-2.32-2.58-3.75s-.94-2.95-.94-4.57.31-3.14.94-4.55c.62-1.41,1.48-2.65,2.58-3.72,1.1-1.06,2.37-1.89,3.83-2.48,1.46-.59,3.03-.89,4.72-.89ZM291.22,118.04c-1.29,0-2.5.24-3.63.72-1.13.48-2.12,1.16-2.99,2.02-.87.86-1.55,1.87-2.04,3.01-.49,1.14-.74,2.36-.74,3.65s.25,2.54.74,3.68c.49,1.14,1.18,2.15,2.05,3.02s1.88,1.56,3.01,2.04c1.13.48,2.33.72,3.6.72s2.5-.24,3.63-.72c1.13-.48,2.12-1.16,2.97-2.04.86-.88,1.52-1.88,2.01-3.02.48-1.14.72-2.37.72-3.68s-.24-2.51-.72-3.65c-.48-1.14-1.15-2.14-2.01-3.01-.85-.87-1.85-1.54-2.97-2.02-1.13-.48-2.34-.72-3.63-.72Z"/>
      <path class="cls-2" d="M325.24,120.74c-.92-.85-1.99-1.52-3.21-2-1.22-.48-2.47-.72-3.76-.72s-2.54.25-3.68.74c-1.14.49-2.15,1.17-3.02,2.04-.88.86-1.56,1.86-2.04,2.99-.48,1.13-.72,2.35-.72,3.66s.24,2.54.72,3.68c.48,1.14,1.16,2.15,2.04,3.02.87.88,1.88,1.56,3.02,2.05,1.14.49,2.38.74,3.71.74,1.21,0,2.41-.24,3.62-.71,1.21-.47,2.28-1.1,3.22-1.89l1.55,1.81c-.75.59-1.59,1.12-2.53,1.58-.94.46-1.92.82-2.94,1.07-1.02.25-2.04.38-3.07.38-1.69,0-3.25-.3-4.7-.9-1.45-.6-2.72-1.44-3.81-2.51-1.1-1.07-1.95-2.32-2.56-3.75-.61-1.42-.92-2.95-.92-4.57s.31-3.13.94-4.54c.62-1.4,1.49-2.64,2.6-3.71,1.11-1.07,2.39-1.91,3.86-2.5,1.47-.59,3.04-.89,4.73-.89,1.05,0,2.09.13,3.11.38,1.02.25,1.98.61,2.89,1.07.91.46,1.74,1.02,2.48,1.68l-1.51,1.81ZM324.35,127.74h2.33v8.42h-2.33v-8.42Z"/>
      <path class="cls-2" d="M337.36,109.43l2.6,1.12-4.08,3.29-2.23-.3,3.71-4.11ZM333.88,115.97h2.63v23.01h-2.63v-23.01Z"/>
      <path class="cls-2" d="M351.27,115.97h2.69l10.29,23.01h-2.83l-8.87-20.31-8.81,20.31h-2.76l10.29-23.01ZM345.52,130.73h13.97v2.27h-13.97v-2.27Z"/>
      <path class="cls-2" d="M374.21,115.97h2.69l7.46,12.19,7.36-12.19h2.69l-9.86,16.73h-.43l-9.93-16.73ZM383.09,129.51h2.6v9.47h-2.6v-9.47Z"/>
      <path class="cls-2" d="M417.6,115.81c1.66,0,3.23.3,4.68.89,1.46.59,2.73,1.42,3.83,2.5,1.1,1.07,1.96,2.31,2.58,3.71.62,1.4.94,2.92.94,4.54s-.31,3.14-.94,4.57c-.62,1.42-1.48,2.67-2.58,3.75-1.1,1.07-2.37,1.91-3.83,2.51-1.46.6-3.02.9-4.68.9s-3.26-.3-4.72-.9c-1.46-.6-2.73-1.44-3.83-2.51-1.1-1.07-1.95-2.32-2.58-3.75-.62-1.42-.94-2.95-.94-4.57s.31-3.14.94-4.55c.62-1.41,1.48-2.65,2.58-3.72,1.1-1.06,2.37-1.89,3.83-2.48,1.46-.59,3.03-.89,4.72-.89ZM417.6,118.04c-1.29,0-2.5.24-3.63.72-1.13.48-2.12,1.16-2.99,2.02-.87.86-1.55,1.87-2.04,3.01-.49,1.14-.74,2.36-.74,3.65s.25,2.54.74,3.68c.49,1.14,1.18,2.15,2.05,3.02s1.88,1.56,3.01,2.04c1.13.48,2.33.72,3.6.72s2.5-.24,3.63-.72c1.13-.48,2.12-1.16,2.97-2.04.86-.88,1.52-1.88,2.01-3.02.48-1.14.72-2.37.72-3.68s-.24-2.51-.72-3.65c-.48-1.14-1.15-2.14-2.01-3.01-.85-.87-1.85-1.54-2.97-2.02-1.13-.48-2.34-.72-3.63-.72Z"/>
      <path class="cls-2" d="M444.95,115.97c1.56,0,2.89.23,3.99.69,1.11.46,1.96,1.12,2.55,1.97.59.86.89,1.88.89,3.09,0,1.34-.37,2.47-1.12,3.4-.75.93-1.78,1.53-3.09,1.79,1.64.24,2.93.88,3.85,1.91.92,1.03,1.38,2.33,1.38,3.91,0,1.32-.33,2.44-.99,3.37s-1.6,1.64-2.84,2.14c-1.24.49-2.73.74-4.49.74h-9.83v-23.01h9.7ZM444.82,126c1.53,0,2.73-.34,3.6-1.02.86-.68,1.3-1.64,1.3-2.89s-.43-2.17-1.3-2.84c-.87-.67-2.07-.99-3.6-.97h-6.94v7.72h6.94ZM444.82,136.71c1.86,0,3.31-.37,4.36-1.12,1.04-.75,1.56-1.8,1.56-3.16s-.52-2.34-1.56-3.07c-1.04-.73-2.49-1.1-4.36-1.1h-6.94v8.45h6.94Z"/>
      <path class="cls-2" d="M472.62,120.05c-.68-.46-1.4-.83-2.15-1.1-.76-.27-1.49-.48-2.2-.61-.71-.13-1.38-.2-1.99-.2-1.49,0-2.68.3-3.57.89-.89.59-1.33,1.4-1.33,2.43,0,.9.24,1.62.71,2.17s1.09,1,1.86,1.35c.77.35,1.61.66,2.53.94.92.27,1.84.57,2.76.89.92.32,1.76.72,2.53,1.22s1.38,1.13,1.84,1.91c.46.78.69,1.77.69,2.97,0,1.27-.35,2.37-1.05,3.3s-1.68,1.66-2.92,2.17c-1.25.51-2.7.77-4.34.77-1.12,0-2.21-.15-3.29-.44-1.07-.3-2.08-.71-3.02-1.23-.94-.52-1.78-1.13-2.5-1.81l1.18-2.14c.72.68,1.51,1.26,2.37,1.74.85.48,1.74.85,2.65,1.12.91.26,1.79.4,2.65.4,1.66,0,2.98-.34,3.94-1.02.96-.68,1.45-1.6,1.45-2.76,0-.9-.23-1.63-.69-2.2-.46-.57-1.07-1.03-1.84-1.38-.77-.35-1.61-.66-2.53-.92-.92-.26-1.85-.55-2.78-.87-.93-.32-1.78-.71-2.55-1.18-.77-.47-1.38-1.09-1.84-1.86-.46-.77-.69-1.74-.69-2.93s.33-2.25.99-3.12,1.59-1.56,2.79-2.05c1.2-.49,2.6-.74,4.17-.74,1.34,0,2.65.2,3.93.59,1.28.4,2.4.9,3.37,1.51l-1.12,2.2Z"/>
      <path class="cls-2" d="M477.39,115.97h17.65v2.3h-7.53v20.71h-2.63v-20.71h-7.49v-2.3Z"/>
      <path class="cls-2" d="M499.68,115.97h15.61v2.3h-12.98v7.89h11.6v2.27h-11.6v8.28h13.41v2.27h-16.04v-23.01Z"/>
      <path class="cls-2" d="M518.78,115.97h17.65v2.3h-7.53v20.71h-2.63v-20.71h-7.49v-2.3Z"/>
      <path class="cls-2" d="M549.81,115.97c2.89,0,5.13.67,6.7,2.02,1.58,1.35,2.37,3.24,2.37,5.67s-.79,4.48-2.37,5.87c-1.58,1.39-3.81,2.09-6.7,2.09h-6.11v7.36h-2.63v-23.01h8.74ZM549.81,129.35c2.08,0,3.7-.48,4.85-1.43,1.15-.95,1.73-2.35,1.73-4.19s-.57-3.16-1.73-4.08c-1.15-.92-2.77-1.38-4.85-1.38h-6.11v11.08h6.11ZM550.59,130.53h2.66l5.85,8.45h-2.99l-5.52-8.45Z"/>
      <path class="cls-2" d="M565.65,115.97h2.63v23.01h-2.63v-23.01Z"/>
      <path class="cls-2" d="M592.73,120.9c-.88-.9-1.91-1.6-3.11-2.12-1.19-.51-2.43-.77-3.7-.77s-2.51.24-3.65.72c-1.14.48-2.14,1.15-2.99,2.02-.86.87-1.52,1.87-2.01,3.01-.48,1.14-.72,2.37-.72,3.68s.24,2.51.72,3.65c.48,1.14,1.15,2.14,2.01,2.99.85.86,1.85,1.53,2.99,2.02,1.14.49,2.36.74,3.65.74s2.49-.25,3.67-.74c1.17-.49,2.22-1.18,3.14-2.05l1.61,1.64c-.75.7-1.58,1.31-2.51,1.84-.93.52-1.9.93-2.91,1.22-1.01.28-2.05.43-3.12.43-1.67,0-3.22-.3-4.65-.9-1.43-.6-2.69-1.44-3.78-2.51-1.08-1.07-1.93-2.32-2.55-3.75-.61-1.42-.92-2.95-.92-4.57s.31-3.13.92-4.54c.61-1.4,1.47-2.64,2.56-3.71,1.1-1.07,2.37-1.91,3.81-2.5,1.45-.59,3.01-.89,4.7-.89,1.05,0,2.08.13,3.09.39,1.01.26,1.96.64,2.86,1.13.9.49,1.72,1.09,2.47,1.79l-1.58,1.77Z"/>
      <path class="cls-2" d="M599.9,115.97h2.63v23.01h-2.63v-23.01Z"/>
      <path class="cls-2" d="M617.29,115.97h2.69l10.29,23.01h-2.83l-8.87-20.31-8.81,20.31h-2.76l10.29-23.01ZM611.54,130.73h13.97v2.27h-13.97v-2.27Z"/>
    </g>
  </g>
  <g>
    <path class="cls-2" d="M26.52,143.9C-1.1,94.84,11.17,37.31,54.25,0-6.5,28.61-18.64,111.32,30.13,155.87c2.95,2.76,6.38,5.32,9.73,7.63-1.21-1.62-2.51-3.16-3.67-4.8-3.66-4.63-6.77-9.75-9.66-14.8Z"/>
    <path class="cls-1" d="M37.18,114.59c.31,2.02-3.08,2.54-4.28,2.7-1.2.23-2.5-.97-2.73-2.09-7.92-28.3-2.45-60.73,14.59-85.07,2.42-3.52,5.09-6.88,7.89-10.15,1.64-1.92,4.63-2.21,6.68-.65.47.35.83.77,1.13,1.23,4.13,5.97,7.86,12.19,11.16,18.61,13.63,25.66,19.48,55.08,14.83,83.47-3.23,20.96-11.45,41.42-24.78,58.48-.21.27-.61.32-.9.12-.24-.17-.32-.46-.22-.7,5.32-12.9,9.48-25.92,11.9-39.16,6.5-37.13,2.13-76.9-16.88-110.4-1.1,1.31-2.21,2.63-3.21,4.02-23.55,32.45-15.47,77.72-15.19,79.59Z"/>
  </g>
</svg>